<?xml version="1.0" encoding="UTF-8"?>
<!DOCTYPE svg PUBLIC "-//W3C//DTD SVG 1.1//EN" "http://www.w3.org/Graphics/SVG/1.1/DTD/svg11.dtd">
<!-- Creator: CorelDRAW 2020 (64-Bit) -->
<svg xmlns="http://www.w3.org/2000/svg" xml:space="preserve" width="20.4989mm" height="20.4989mm" version="1.1" style="shape-rendering:geometricPrecision; text-rendering:geometricPrecision; image-rendering:optimizeQuality; fill-rule:evenodd; clip-rule:evenodd"
viewBox="0 0 2053.67 2053.67"
 xmlns:xlink="http://www.w3.org/1999/xlink"
 xmlns:xodm="http://www.corel.com/coreldraw/odm/2003">
 <defs>
  <style type="text/css">
   <![CDATA[
    .fil0 {fill:url(#id0)}
   ]]>
  </style>
  <linearGradient id="id0" gradientUnits="userSpaceOnUse" x1="129.07" y1="1027.16" x2="1892.9" y2="1027.16">
   <stop offset="0" style="stop-opacity:1; stop-color:#4D106C"/>
   <stop offset="0.360784" style="stop-opacity:1; stop-color:#B8017F"/>
   <stop offset="0.678431" style="stop-opacity:1; stop-color:#FF5A45"/>
   <stop offset="1" style="stop-opacity:1; stop-color:#FFAA01"/>
  </linearGradient>
 </defs>
 <g id="图层_x0020_1">
  <metadata id="CorelCorpID_0Corel-Layer"/>
  <path class="fil0" d="M1053.43 19.65c-13.68,14.89 -17.56,35.99 -11.52,62.78l0 0c7.99,35.66 15.77,70.19 46.27,131.82l0 0c-18.12,24.61 -38.84,50.26 -60.71,75.88l0 0c-25.77,-29.61 -46.02,-54.53 -62.17,-76.02l0 0c8.52,-17.7 16.05,-34.77 22.23,-50.92l0 0c25.84,-67.65 29.3,-113.24 10.53,-139.4l0 0c-17.52,-24.45 -48.66,-23.18 -63.9,-22.62l0 0c-17.7,0.67 -43.01,8.74 -56.01,29.16l0 0c-10.89,17 -11.03,38.52 -0.43,63.83l0 0c14.07,33.71 27.71,66.41 68.43,121.79l0 0c-13.57,27.39 -29.51,56.22 -46.62,85.28l0 0c-30.51,-24.71 -54.78,-45.73 -74.44,-64.04l0 0c5.34,-18.98 9.76,-37.11 13.04,-54.01l0 0c13.72,-71.14 9.19,-116.66 -13.79,-139.14l0 0c-21.56,-21.04 -51.95,-14.46 -66.86,-11.21l0 0c-17.32,3.75 -40.86,16.08 -50.15,38.45l0 0c-7.7,18.66 -4.17,39.83 10.67,62.95l0 0c19.73,30.79 38.84,60.54 88.53,108.05l0 0c-8.59,29.33 -19.26,60.5 -31.07,92.1l0 0c-34.35,-19.01 -61.88,-35.52 -84.4,-50.18l0 0c1.91,-19.59 3.15,-38.21 3.43,-55.45l0 0c1.17,-72.42 -11.16,-116.45 -37.74,-134.63l0 0c-24.89,-16.96 -53.69,-5.16 -67.79,0.6l0 0c-16.4,6.68 -37.43,22.9 -42.66,46.55l0 0c-4.42,19.73 2.8,39.97 21.39,60.16l0 0c24.78,26.89 48.73,52.91 105.95,91.01l0 0c-3.36,30.4 -8.45,62.95 -14.6,96.13l0 0c-37.11,-12.79 -67.15,-24.24 -91.86,-34.77l0 0c-1.44,-19.62 -3.5,-38.17 -6.22,-55.17l0 0c-11.45,-71.53 -31.24,-112.78 -60.54,-126.03l0 0c-27.46,-12.4 -53.75,4.21 -66.65,12.33l0 0c-15.02,9.44 -32.87,29.12 -33.96,53.27l0 0c-0.88,20.18 9.72,38.87 31.52,55.52l0 0c29.09,22.16 57.19,43.61 120.17,71.21l0 0c1.94,30.54 2.57,63.48 2.29,97.23l0 0c-38.77,-6.15 -70.33,-12.22 -96.52,-18.3l0 0c-4.81,-19.09 -10.08,-37.01 -15.69,-53.3l0 0c-23.68,-68.46 -50.37,-105.6 -81.51,-113.56l0 0c-29.15,-7.49 -52.24,13.43 -63.47,23.71l0 0c-13.15,11.91 -27.36,34.35 -24.21,58.36l0 0c2.61,20.04 16.29,36.58 40.68,49.19l0 0c32.48,16.79 63.9,33.01 130.69,49.27l0 0c7.24,29.75 13.57,62.06 19.16,95.32l0 0c-39.26,0.71 -71.39,0.18 -98.25,-1.23l0 0c-8.05,-17.92 -16.33,-34.7 -24.71,-49.73l0 0c-35.19,-63.33 -67.89,-95.29 -99.98,-97.72l0 0c-30.01,-2.19 -49.05,22.34 -58.42,34.39l0 0c-10.85,14.03 -20.96,38.55 -13.69,61.67l0 0c6.05,19.26 22.41,33.18 48.6,41.39l0 0c34.95,10.88 68.68,21.41 137.31,25.83l0 0c12.26,27.99 24.13,58.75 35.41,90.56l0 0c-38.55,7.48 -70.29,12.54 -96.98,15.79l0 0c-11.06,-16.25 -22.12,-31.28 -32.97,-44.67l0 0c-45.66,-56.26 -83.48,-82.03 -115.43,-78.85l0 0c-29.98,2.97 -44.46,30.54 -51.56,44l0 0c-8.24,15.69 -13.93,41.64 -2.76,63.13l0 0c9.3,17.91 27.81,28.76 55.06,32.3l0 0c36.27,4.63 71.32,9.16 139.68,1.59l0 0c16.96,25.45 34,53.65 50.57,83.01l0 0c-36.65,14.11 -67.01,24.61 -92.7,32.41l0 0c-13.76,-14.07 -27.25,-26.96 -40.29,-38.27l0 0c-54.67,-47.43 -96.38,-66.27 -127.33,-57.61l0 0c-29.02,8.12 -38.49,37.78 -43.12,52.27l0 0c-5.41,16.89 -6.5,43.47 8.24,62.63l0 0c12.26,16.09 32.44,23.57 59.83,22.27l0 0c36.51,-1.66 71.85,-3.33 137.8,-22.62l0 0c21.14,22.09 42.8,46.94 64.22,72.94l0 0c-33.65,20.26 -61.71,35.85 -85.64,48l0 0c-15.97,-11.48 -31.49,-21.84 -46.3,-30.68l0 0c-62.13,-37.22 -106.46,-48.56 -135.44,-34.63l0 0c-27.18,13.07 -31.35,43.89 -33.39,58.99l0 0c-2.4,17.56 1.12,43.89 18.93,60.26l0 0c14.92,13.68 36.06,17.52 62.85,11.52l0 0c35.66,-7.99 70.15,-15.77 131.75,-46.27l0 0c24.68,18.12 50.29,38.84 75.96,60.71l0 0c-29.62,25.77 -54.57,46.02 -76.03,62.17l0 0c-17.74,-8.52 -34.84,-16.05 -50.92,-22.23l0 0c-67.64,-25.84 -113.24,-29.3 -139.4,-10.53l0 0c-24.45,17.52 -23.25,48.63 -22.65,63.86l0 0c0.7,17.71 8.77,43.05 29.15,56.05l0 0c17.04,10.89 38.53,11.03 63.87,0.46l0 0c33.72,-14.1 66.37,-27.74 121.75,-68.46l0 0c27.39,13.57 56.23,29.51 85.32,46.62l0 0c-24.71,30.51 -45.73,54.78 -64.11,74.44l0 0c-18.94,-5.34 -37.04,-9.76 -54.01,-13.04l0 0c-71.1,-13.72 -116.59,-9.23 -139.07,13.79l0 0c-21.07,21.56 -14.46,51.95 -11.21,66.83l0 0c3.75,17.35 16.08,40.89 38.42,50.15l0 0c18.66,7.73 39.86,4.17 62.95,-10.64l0 0c30.79,-19.76 60.58,-38.84 108.04,-88.53l0 0c29.37,8.59 60.51,19.26 92.11,31.07l0 0c-19.01,34.35 -35.53,61.88 -50.15,84.4l0 0c-19.62,-1.91 -38.21,-3.15 -55.45,-3.43l0 0c-72.49,-1.31 -116.49,11.16 -134.63,37.74l0 0c-16.99,24.89 -5.23,53.66 0.57,67.79l0 0c6.71,16.4 22.93,37.43 46.59,42.66l0 0c3.71,0.88 7.45,1.27 11.23,1.27l0 0c16.16,0 32.52,-7.6 48.92,-22.66l0 0c26.86,-24.78 52.87,-48.73 91.01,-105.95l0 0c30.4,3.33 62.95,8.45 96.06,14.6l0 0c-12.72,37.11 -24.2,67.15 -34.7,91.86l0 0c-19.65,1.44 -38.2,3.54 -55.24,6.22l0 0c-71.53,11.45 -112.71,31.24 -125.99,60.54l0 0c-12.41,27.46 4.2,53.75 12.33,66.69l0 0c9.47,14.98 29.08,32.83 53.26,33.92l0 0c0.81,0.04 1.55,0.07 2.37,0.07l0 0c19.26,0 37.18,-10.64 53.19,-31.59l0 0c22.16,-29.09 43.58,-57.19 71.21,-120.17l0 0c30.51,-1.94 63.45,-2.57 97.16,-2.29l0 0c-6.11,38.77 -12.19,70.33 -18.23,96.52l0 0c-19.09,4.81 -37.01,10.08 -53.34,15.69l0 0c-68.46,23.68 -105.6,50.33 -113.55,81.51l0 0c-7.46,29.15 13.46,52.24 23.71,63.51l0 0c10.81,11.87 30.19,24.64 51.56,24.64l0 0c2.22,0 4.49,-0.18 6.78,-0.46l0 0c20.04,-2.61 36.58,-16.29 49.2,-40.68l0 0c16.82,-32.48 33.04,-63.9 49.3,-130.73l0 0c29.68,-7.2 62.06,-13.53 95.29,-19.12l0 0c0.71,39.26 0.18,71.39 -1.23,98.21l0 0c-17.96,8.09 -34.67,16.37 -49.77,24.75l0 0c-63.3,35.19 -95.25,67.89 -97.68,99.98l0 0c-2.26,30.01 22.33,49.05 34.38,58.42l0 0c10.75,8.31 27.6,16.12 45.27,16.12l0 0c5.45,0 10.96,-0.74 16.4,-2.43l0 0c19.3,-6.05 33.22,-22.45 41.39,-48.6l0 0c10.89,-34.95 21.46,-68.68 25.84,-137.31l0 0c28.02,-12.26 58.74,-24.13 90.55,-35.41l0 0c7.49,38.55 12.58,70.29 15.84,96.94l0 0c-16.3,11.1 -31.32,22.13 -44.71,33.01l0 0c-56.23,45.63 -82.03,83.44 -78.86,115.43l0 0c2.98,29.98 30.51,44.46 44.01,51.56l0 0c9.43,4.95 22.58,9.02 36.23,9.02l0 0c9.05,0 18.3,-1.8 26.86,-6.26l0 0c17.95,-9.3 28.83,-27.81 32.34,-55.06l0 0c4.66,-36.27 9.19,-71.32 1.62,-139.68l0 0c25.45,-16.96 53.65,-34 83.02,-50.57l0 0c14.07,36.62 24.56,67.01 32.41,92.7l0 0c-14.11,13.76 -27.01,27.25 -38.32,40.25l0 0c-47.46,54.71 -66.26,96.39 -57.61,127.37l0 0c8.17,29.02 37.82,38.49 52.31,43.12l0 0c6.86,2.23 15.31,3.72 24.24,3.72l0 0c13.01,0 26.97,-3.19 38.38,-11.95l0 0c16.05,-12.26 23.54,-32.41 22.27,-59.83l0 0c-1.73,-36.51 -3.33,-71.85 -22.69,-137.83l0 0c22.13,-21.11 46.98,-42.77 72.98,-64.19l0 0c20.22,33.61 35.84,61.71 48.03,85.64l0 0c-11.48,15.97 -21.84,31.49 -30.75,46.3l0 0c-37.18,62.13 -48.53,106.46 -34.6,135.44l0 0c13.04,27.18 43.9,31.35 58.99,33.39l0 0c2.9,0.42 6.04,0.64 9.34,0.68l0.84 0 0 0 0.78 0c16.36,-0.16 36.09,-5.22 49.3,-19.62l0 0c13.65,-14.92 17.53,-36.06 11.52,-62.85l0 0c-8.02,-35.66 -15.73,-70.15 -46.23,-131.79l0 0c18.09,-24.64 38.8,-50.25 60.72,-75.92l0 0c25.76,29.62 45.97,54.57 62.12,76.03l0 0c-8.52,17.74 -16.04,34.84 -22.19,50.92l0 0c-25.87,67.64 -29.33,113.28 -10.6,139.4l0 0c14.49,20.15 38.13,22.86 54.53,22.86l0 0c3.5,0 6.68,-0.14 9.4,-0.21l0 0c17.71,-0.7 43.02,-8.77 56.02,-29.15l0 0c10.88,-17.04 11.06,-38.53 0.46,-63.87l0 0c-14.11,-33.72 -27.71,-66.34 -68.47,-121.75l0 0c13.57,-27.43 29.51,-56.23 46.63,-85.32l0 0c30.54,24.71 54.78,45.73 74.43,64.11l0 0c-5.34,18.9 -9.76,37.04 -13.04,54.01l0 0c-13.71,71.1 -9.19,116.59 13.79,139.07l0 0c11.88,11.63 26.44,14.82 39.62,14.82l0 0c10.74,0 20.57,-2.12 27.25,-3.61l0 0c17.31,-3.75 40.86,-16.05 50.11,-38.42l0 0c7.74,-18.66 4.17,-39.86 -10.64,-62.95l0 0c-19.72,-30.79 -38.8,-60.58 -88.53,-108.04l0 0c8.59,-29.33 19.27,-60.51 31.11,-92.14l0 0c34.31,19.05 61.88,35.56 84.4,50.18l0 0c-1.98,19.62 -3.19,38.21 -3.47,55.49l0 0c-1.13,72.38 11.21,116.45 37.75,134.59l0 0c9.58,6.53 19.72,8.8 29.4,8.8l0 0c15.45,0 29.68,-5.8 38.38,-9.37l0 0c16.44,-6.71 37.47,-22.93 42.7,-46.59l0 0c4.38,-19.72 -2.83,-39.93 -21.42,-60.15l0 0c-24.78,-26.86 -48.7,-52.84 -105.99,-91.01l0 0c3.4,-30.4 8.49,-62.95 14.64,-96.06l0 0c37.14,12.72 67.11,24.17 91.89,34.7l0 0c1.44,19.65 3.5,38.17 6.22,55.24l0 0c11.41,71.53 31.21,112.74 60.54,125.99l0 0c7.03,3.19 14,4.46 20.68,4.46l0 0c19.37,0 36.37,-10.75 45.94,-16.82l0 0c15.02,-9.44 32.9,-29.05 33.99,-53.23l0 0c0.89,-20.22 -9.72,-38.88 -31.52,-55.52l0 0c-29.09,-22.2 -57.23,-43.62 -120.2,-71.25l0 0c-1.94,-30.54 -2.58,-63.45 -2.26,-97.16l0 0c38.77,6.11 70.3,12.19 96.45,18.23l0 0c4.88,19.09 10.11,37.01 15.77,53.34l0 0c23.64,68.46 50.32,105.6 81.5,113.55l0 0c4.24,1.1 8.38,1.59 12.36,1.59l0 0c23.26,0 41.46,-16.54 51.11,-25.31l0 0c13.14,-11.91 27.35,-34.38 24.2,-58.35l0 0c-2.65,-20.04 -16.33,-36.58 -40.71,-49.2l0 0c-32.48,-16.82 -63.87,-33.04 -130.7,-49.3l0 0c-7.24,-29.68 -13.56,-62.06 -19.12,-95.33l0 0c39.23,-0.67 71.35,-0.14 98.18,1.27l0 0c8.12,17.96 16.36,34.67 24.74,49.77l0 0c35.24,63.3 67.93,95.25 99.98,97.68l0 0c1.31,0.07 2.62,0.14 3.9,0.14l0 0c27.81,0 45.58,-23.04 54.49,-34.52l0 0c10.89,-14.04 21,-38.59 13.72,-61.67l0 0c-6.04,-19.3 -22.4,-33.19 -48.63,-41.39l0 0c-34.84,-10.89 -68.64,-21.46 -137.23,-25.84l0 0c-12.3,-28.02 -24.14,-58.74 -35.42,-90.55l0 0c38.52,-7.49 70.22,-12.58 96.91,-15.84l0 0c11.1,16.26 22.16,31.32 33.04,44.71l0 0c43.16,53.16 79.21,79.1 110.06,79.1l0 0c1.83,0 3.57,-0.07 5.34,-0.24l0 0c30.01,-2.98 44.46,-30.51 51.56,-44.01l0 0c8.27,-15.69 13.93,-41.63 2.76,-63.09l0 0c-9.34,-17.95 -27.82,-28.83 -55.03,-32.34l0 0c-36.3,-4.66 -71.36,-9.22 -139.71,-1.62l0 0c-16.97,-25.45 -33.96,-53.65 -50.58,-83.02l0 0c36.66,-14.07 67.01,-24.56 92.74,-32.41l0 0c13.72,14.11 27.18,27.01 40.22,38.32l0 0c54.74,47.43 96.42,66.26 127.37,57.61l0 0c29.01,-8.17 38.49,-37.82 43.12,-52.31l0 0c5.41,-16.9 6.5,-43.4 -8.2,-62.63l0 0c-12.3,-16.05 -32.41,-23.5 -59.84,-22.27l0 0c-36.51,1.69 -71.85,3.33 -137.83,22.69l0 0c-21.14,-22.13 -42.77,-46.98 -64.26,-72.98l0 0c33.68,-20.22 61.71,-35.84 85.67,-48.03l0 0c16.02,11.48 31.53,21.84 46.34,30.75l0 0c62.13,37.18 106.43,48.49 135.44,34.6l0 0c27.14,-13.04 31.31,-43.9 33.4,-59.03l0 0c0.31,-2.5 0.55,-5.18 0.63,-7.99l0 -0.13 0 0 0 -3.96c-0.39,-16.12 -5.58,-35.23 -19.65,-48.14l0 0c-14.89,-13.65 -35.99,-17.53 -62.78,-11.52l0 0c-35.66,8.02 -70.19,15.73 -131.82,46.23l0 0c-24.64,-18.09 -50.26,-38.8 -75.88,-60.72l0 0c29.61,-25.76 54.49,-45.97 75.98,-62.12l0 0c17.74,8.52 34.81,16.01 50.96,22.19l0 0c67.65,25.91 113.24,29.33 139.4,10.57l0 0c24.45,-17.56 23.22,-48.67 22.62,-63.9l0 0c-0.67,-17.71 -8.77,-43.02 -29.16,-56.02l0 0c-17.03,-10.88 -38.52,-11.03 -63.83,-0.46l0 0c-33.71,14.11 -66.37,27.71 -121.79,68.47l0 0c-27.39,-13.57 -56.26,-29.51 -85.28,-46.63l0 0c24.67,-30.54 45.73,-54.78 64.04,-74.43l0 0c18.98,5.34 37.11,9.76 54.01,13.04l0 0c71.14,13.71 116.66,9.19 139.14,-13.79l0 0c21.07,-21.56 14.46,-52 11.21,-66.87l0 0c-3.79,-17.31 -16.08,-40.86 -38.45,-50.11l0 0c-18.66,-7.74 -39.83,-4.17 -62.92,10.64l0 0c-30.82,19.72 -60.57,38.8 -108.08,88.53l0 0c-29.33,-8.59 -60.5,-19.27 -92.1,-31.11l0 0c19.01,-34.35 35.52,-61.88 50.18,-84.4l0 0c19.59,1.98 38.21,3.19 55.45,3.43l0 0c72.28,1.17 116.45,-11.17 134.63,-37.71l0 0c16.96,-24.88 5.16,-53.69 -0.6,-67.78l0 0c-6.72,-16.44 -22.94,-37.47 -46.55,-42.7l0 0c-19.76,-4.38 -39.97,2.83 -60.16,21.42l0 0c-26.89,24.78 -52.91,48.7 -91.04,105.99l0 0c-30.37,-3.4 -62.95,-8.52 -96.1,-14.64l0 0c12.79,-37.14 24.24,-67.11 34.77,-91.89l0 0c19.62,-1.44 38.17,-3.5 55.17,-6.22l0 0c71.53,-11.41 112.78,-31.21 126.03,-60.54l0 0c12.4,-27.42 -4.21,-53.76 -12.33,-66.62l0 0c-9.48,-15.02 -29.12,-32.9 -53.27,-33.99l0 0c-20.25,-0.89 -38.84,9.75 -55.52,31.52l0 0c-22.16,29.09 -43.61,57.23 -71.25,120.2l0 0c-30.5,1.94 -63.44,2.58 -97.19,2.26l0 0c6.15,-38.77 12.22,-70.3 18.3,-96.45l0 0c19.09,-4.88 37.01,-10.11 53.3,-15.77l0 0c68.43,-23.64 105.57,-50.32 113.56,-81.5l0 0c7.45,-29.15 -13.43,-52.17 -23.71,-63.48l0 0c-11.91,-13.14 -34.35,-27.35 -58.39,-24.2l0 0c-20.01,2.65 -36.55,16.33 -49.16,40.67l0 0c-16.79,32.48 -33.01,63.91 -49.31,130.74l0 0c-29.71,7.24 -62.02,13.56 -95.28,19.12l0 0c-0.71,-39.23 -0.22,-71.35 1.23,-98.18l0 0c17.95,-8.12 34.67,-16.36 49.73,-24.74l0 0c63.33,-35.2 95.29,-67.93 97.72,-99.98l0 0c2.26,-30.05 -22.34,-49.1 -34.39,-58.39l0 0c-14.03,-10.89 -38.55,-21 -61.7,-13.72l0 0c-19.23,6.04 -33.15,22.4 -41.36,48.6l0 0c-10.88,34.87 -21.41,68.67 -25.83,137.26l0 0c-27.99,12.3 -58.75,24.14 -90.56,35.42l0 0c-7.48,-38.56 -12.54,-70.26 -15.79,-96.91l0 0c16.25,-11.1 31.28,-22.16 44.67,-33.04l0 0c56.26,-45.63 82.03,-83.37 78.85,-115.4l0 0c-2.97,-30.01 -30.5,-44.46 -44,-51.56l0 0c-15.73,-8.27 -41.64,-13.93 -63.13,-2.76l0 0c-17.91,9.34 -28.76,27.82 -32.26,55.03l0 0c-4.67,36.26 -9.23,71.36 -1.63,139.71l0 0c-25.45,16.97 -53.65,33.96 -83.01,50.58l0 0c-14.11,-36.66 -24.61,-67.05 -32.41,-92.74l0 0c14.07,-13.72 26.96,-27.22 38.27,-40.22l0 0c47.43,-54.74 66.3,-96.42 57.61,-127.41l0 0c-8.12,-28.97 -37.78,-38.45 -52.27,-43.08l0 0c-16.89,-5.41 -43.47,-6.54 -62.67,8.2l0 0c-16.05,12.3 -23.5,32.41 -22.23,59.84l0 0c1.66,36.51 3.33,71.85 22.65,137.83l0 0c-22.12,21.1 -46.97,42.77 -72.97,64.22l0 0c-20.26,-33.64 -35.85,-61.7 -48,-85.67l0 0c11.48,-15.98 21.84,-31.49 30.68,-46.3l0 0c37.25,-62.13 48.56,-106.43 34.6,-135.44l0 0c-13.04,-27.11 -43.86,-31.31 -58.96,-33.4l0 0c-3.15,-0.42 -6.57,-0.63 -10.18,-0.63l0 0c-16.5,0 -36.65,4.98 -50.08,19.65zm4.53 59.2c-4.77,-21.24 -2.22,-37.43 7.56,-48.1l0 0c9.33,-10.14 24.53,-14.32 37.96,-14.32l0 0c2.87,0 5.65,0.18 8.27,0.57l0 0c12.9,1.73 36.9,4.98 46.12,24.17l0 0c7.7,16.04 8.05,49.79 -33.93,119.84l0 0c-7.31,12.27 -15.65,25 -24.85,38.03l0 0c-26.54,-55.09 -33.71,-87.15 -41.14,-120.2zm-165.12 8.98c-8.38,-20.07 -8.66,-36.44 -0.84,-48.66l0 0c9.01,-14.11 27.99,-21 43.11,-21.6l0 0c2.47,-0.1 5.38,-0.17 8.53,-0.17l0 0c13.28,0 31.07,2.01 41.07,16.01l0 0c10.39,14.42 16.61,47.64 -12.54,123.95l0 0c-5.09,13.28 -11.1,27.28 -17.92,41.74l0 0c-35.67,-49.66 -48.32,-79.98 -61.39,-111.26zm329.26 10.78c-1.02,-21.66 4.31,-37.18 15.83,-46.01l0 0c7.92,-6.04 18.31,-8.48 28.49,-8.48l0 0c6.82,0 13.61,1.09 19.44,2.93l0 0c12.37,4 35.42,11.38 41.18,31.85l0 0c4.81,17.1 -0.71,50.47 -54.18,112.18l0 0c-9.37,10.75 -19.8,21.84 -31.14,33.12l0 0c-16.54,-58.85 -18.02,-91.68 -19.62,-125.58zm-490.27 26.76c-11.74,-18.3 -14.85,-34.39 -9.3,-47.79l0 0c6.39,-15.44 23.92,-25.52 38.73,-28.73l0 0c6.01,-1.3 14.46,-3.15 23.33,-3.15l0 0c9.86,0 20.25,2.3 28.27,10.11l0 0c12.72,12.41 24.6,44.04 9.12,124.23l0 0c-2.73,14 -6.22,28.81 -10.36,44.25l0 0c-43.75,-42.69 -61.49,-70.4 -79.8,-98.92zm648.5 21.24c2.8,-21.52 10.71,-35.88 23.53,-42.55l0 0c5.94,-3.05 12.62,-4.35 19.41,-4.35l0 0c10.22,0 20.68,2.97 28.77,7.2l0 0c11.52,6.08 32.94,17.36 35.05,38.53l0 0c1.73,17.67 -9.47,49.55 -72.87,101.05l0 0c-11.06,8.94 -23.29,18.05 -36.41,27.21l0 0c-6.04,-60.86 -1.83,-93.44 2.51,-127.09zm-800.55 43.68c-14.7,-16.01 -20.61,-31.31 -17.46,-45.44l0 0c3.65,-16.3 19.13,-29.26 33.15,-35.02l0 0c7.67,-3.15 19.59,-8.02 31.74,-8.02l0 0c6.89,0 13.9,1.59 20.29,5.94l0 0c14.67,10 31.88,39.12 30.54,120.76l0 0c-0.21,14.21 -1.05,29.44 -2.5,45.34l0 0c-50.5,-34.45 -72.77,-58.6 -95.75,-83.55zm948.03 31.07c6.47,-20.71 16.75,-33.43 30.61,-37.81l0 0c3.68,-1.13 7.53,-1.66 11.42,-1.66l0 0c12.89,0 26.26,5.72 35.49,12.86l0 0c10.28,7.95 29.43,22.79 27.81,44l0 0c-1.34,17.7 -17.92,47.15 -89.27,86.84l0 0c-12.44,6.92 -26.09,13.75 -40.57,20.5l0 0c4.63,-61 14.42,-92.32 24.53,-124.73zm-1086.47 59.27c-17.32,-13.17 -25.77,-27.21 -25.1,-41.74l0 0c0.71,-16.64 13.72,-32.16 26.54,-40.21l0 0c8.39,-5.31 22.27,-14.04 36.98,-14.04l0 0c4.59,0 9.29,0.85 13.89,2.94l0 0c16.19,7.31 38.2,32.97 51.1,113.63l0 0c2.19,14.03 4,29.19 5.37,45.13l0 0c-55.73,-25.21 -81.85,-45.13 -108.78,-65.71zm597.05 21.99c20.74,-24.24 40.49,-48.49 58.1,-72.03l0 0c12.02,23.18 27.04,49.9 46.01,81.4l0 0c-18.33,14.84 -37.14,29.54 -55.94,43.82l0 0c-17.77,-19.23 -33.79,-36.86 -48.17,-53.19zm-125.93 9.01c16.22,-27.49 31.46,-54.81 44.71,-81.04l0 0c15.83,20.71 35.26,44.46 59.44,72.17l0 0c-15.48,17.81 -31.45,35.56 -47.46,52.84l0 0c-20.86,-15.8 -39.69,-30.44 -56.69,-43.97zm251.53 4c24.64,-20.25 48.28,-40.75 69.7,-60.82l0 0c7.81,24.88 17.99,53.79 31.18,88.1l0 0c-20.65,11.45 -41.68,22.66 -62.67,33.47l0 0c-14.21,-22.02 -26.9,-42.2 -38.21,-60.75zm-374 26.72c11.21,-29.86 21.46,-59.41 29.94,-87.54l0 0c19.24,17.63 42.52,37.64 71.11,60.71l0 0c-12.15,20.26 -24.81,40.47 -37.57,60.33l0 0c-23.32,-11.98 -44.39,-23.11 -63.48,-33.5zm870.04 -21.74c10,-19.3 22.33,-30.04 36.72,-31.91l0 0c1.52,-0.21 3.08,-0.28 4.6,-0.28l0 0c15.16,0 30.43,9.26 39.68,19.44l0 0c8.74,9.61 25.03,27.53 19.76,48.14l0 0c-4.42,17.21 -25.83,43.36 -103.06,70.05l0 0c-13.42,4.63 -28.02,9.05 -43.5,13.14l0 0c15.16,-59.27 30.25,-88.42 45.8,-118.58zm-1339.39 73.05c-19.3,-10 -30.08,-22.37 -31.98,-36.76l0 0c-2.15,-16.57 7.98,-34.06 19.19,-44.24l0 0c8.35,-7.56 22.87,-20.75 40.01,-20.75l0 0c2.64,0 5.41,0.32 8.17,0.99l0 0c17.21,4.42 43.33,25.83 70.01,103.06l0 0c4.67,13.42 9.02,28.02 13.15,43.47l0 0c-59.24,-15.13 -88.43,-30.22 -118.55,-45.77zm964.75 -43.4c27.82,-15.69 54.64,-31.74 79.21,-47.82l0 0c3.36,25.84 8.38,56.12 15.41,92.21l0 0c-22.3,7.7 -44.99,15.06 -67.5,22.05l0 0c-10.18,-24.13 -19.16,-46.18 -27.11,-66.44zm-610.65 43.61c5.83,-31.35 10.82,-62.23 14.29,-91.39l0 0c22.01,14 48.38,29.64 80.58,47.43l0 0c-8.49,22.05 -17.42,44.18 -26.55,65.95l0 0c-25.02,-7.77 -47.71,-15.06 -68.32,-21.99zm307.56 -28.34c15.23,-16.5 30.43,-33.36 45.27,-50.32l0 0c13.75,15.55 28.98,32.41 45.8,50.57l0 0c-15.37,11.55 -30.68,22.79 -45.59,33.57l0 0c-14.17,-10.39 -29.29,-21.63 -45.48,-33.82zm-114.16 17.81c12.16,-18.9 24.21,-38.17 35.81,-57.47l0 0c16.29,12.97 34.21,26.86 53.97,41.85l0 0c-13.18,14.07 -26.3,27.78 -39.09,41l0 0c-15.73,-7.73 -32.62,-16.22 -50.68,-25.38zm229.66 -15.48c17.88,-13.61 35.8,-27.57 53.3,-41.74l0 0c10.88,17.74 22.97,36.93 36.4,57.79l0 0c-17.17,8.69 -34.21,17.14 -50.75,25.13l0 0c-12.12,-12.65 -25.13,-26.37 -38.94,-41.18zm-339.01 52.81c8.7,-20.75 17.21,-41.78 25.31,-62.81l0 0c18.27,9.93 38.35,20.53 60.37,31.84l0 0c-10.5,16.15 -21.03,31.95 -31.32,47.19l0 0c-16.86,-4.95 -34.95,-10.32 -54.36,-16.22zm452.35 -30.44c20.01,-10.32 40.08,-20.99 59.77,-31.88l0 0c7.63,19.37 16.19,40.36 25.8,63.2l0 0c-18.44,5.62 -36.65,10.95 -54.36,15.97l0 0c-9.75,-14.56 -20.11,-30.33 -31.21,-47.29zm187.82 15.2c30.08,-10.6 59.31,-21.77 86.31,-33.33l0 0c-1.17,26.05 -1.52,56.69 -0.81,93.48l0 0c-23.29,3.68 -46.98,7.03 -70.37,9.97l0 0c-5.8,-25.52 -10.82,-48.81 -15.13,-70.12zm-828.75 59.24c0.28,-31.96 -0.18,-63.24 -1.83,-92.53l0 0c24.1,10 52.8,20.82 87.58,32.73l0 0c-4.5,23.18 -9.44,46.51 -14.68,69.55l0 0c-25.97,-3.29 -49.58,-6.53 -71.07,-9.75zm364.14 -48.35c12.05,-12.48 24.34,-25.45 36.69,-38.67l0 0c15.13,11.38 29.4,21.98 42.73,31.81l0 0c-13.11,9.37 -25.77,18.31 -37.93,26.76l0 0c-12.79,-6.01 -26.57,-12.62 -41.49,-19.9zm107.41 -6.79c14.07,-10.21 28.41,-20.82 42.87,-31.7l0 0c12.93,13.82 25.1,26.75 36.55,38.73l0 0c-14.5,6.93 -28.59,13.57 -41.99,19.8l0 0c-11.52,-8.17 -24,-17.07 -37.43,-26.83zm-212.02 32.13c9.68,-14.39 19.58,-29.26 29.43,-44.42l0 0c16.86,8.59 32.73,16.54 47.58,23.85l0 0c-11.28,11.52 -22.2,22.55 -32.7,32.97l0 0c-13.61,-3.71 -28.41,-7.84 -44.31,-12.4zm319 -20.18c15.63,-7.6 31.57,-15.56 47.75,-23.75l0 0c10.29,15.87 20.08,30.68 29.23,44.49l0 0c-15.52,4.32 -30.47,8.39 -44.78,12.2l0 0c-9.93,-10.04 -20.71,-21 -32.2,-32.94zm-491.08 54.95c4.95,-21.91 9.65,-44.17 14,-66.23l0 0c19.72,6.57 41.35,13.53 64.99,20.86l0 0c-7.56,17.7 -15.16,35.09 -22.68,51.88l0 0c-17.46,-1.9 -36.2,-4.06 -56.3,-6.5zm661.3 -44.53c21.42,-6.67 43.05,-13.71 64.33,-21.03l0 0c4.13,20.43 8.94,42.59 14.42,66.73l0 0c-19.13,2.33 -37.99,4.42 -56.26,6.29l0 0c-7.07,-16.05 -14.57,-33.37 -22.48,-52zm454.13 9.41c12.72,-16.68 26.22,-25.1 40.18,-25.1l0 0c0.49,0 0.98,0 1.51,0.04l0 0c16.68,0.74 32.2,13.75 40.25,26.5l0 0c6.93,11.03 19.87,31.5 11.1,50.86l0 0c-7.31,16.22 -32.97,38.2 -113.63,51.1l0 0c-14.03,2.26 -29.19,4 -45.13,5.37l0 0c25.21,-55.73 45.13,-81.85 65.71,-108.78zm-780.02 2.94c11.17,-7.85 22.76,-16.05 34.64,-24.57l0 0c12.19,8.87 23.53,17.03 34.24,24.64l0 0c-12.22,5.54 -23.75,10.78 -34.38,15.51l0 0c-10.43,-4.59 -21.88,-9.79 -34.5,-15.58zm-771.64 81.67c-20.74,-6.5 -33.5,-16.78 -37.81,-30.64l0 0c-5.02,-15.94 1.9,-34.92 11.17,-46.91l0 0c7.66,-9.86 21.63,-27.88 41.49,-27.88l0 0c0.85,0 1.66,0 2.51,0.07l0 0c17.7,1.34 47.15,17.92 86.83,89.27l0 0c6.96,12.44 13.79,26.09 20.54,40.57l0 0c-60.96,-4.63 -92.35,-14.42 -124.73,-24.5zm670.98 -66.97c9.65,-9.61 19.62,-19.72 29.86,-30.22l0 0c13.53,6.64 26.12,12.72 37.96,18.34l0 0c-11.03,7.59 -21.49,14.74 -31.17,21.24l0 0c-10.99,-2.68 -23.26,-5.83 -36.66,-9.37zm202.34 -11.73c12.37,-5.76 25.2,-11.8 38.38,-18.16l0 0c10.46,10.85 20.22,20.85 29.4,30.22l0 0c-12.97,3.36 -25.2,6.46 -36.55,9.3l0 0c-9.4,-6.33 -19.83,-13.43 -31.24,-21.35zm-363.64 37.57c7.06,-15.87 14.21,-32.2 21.31,-48.88l0 0c18.09,5.55 35.09,10.64 50.96,15.27l0 0c-9.09,13.28 -17.92,26.01 -26.44,38.1l0 0c-14.07,-1.27 -29.33,-2.76 -45.83,-4.49zm520.88 -32.94c16.72,-4.77 33.86,-9.79 51.14,-15.09l0 0c7.42,17.42 14.46,33.71 21.1,48.88l0 0c-16.01,1.55 -31.49,2.97 -46.24,4.2l0 0c-8.05,-11.55 -16.71,-24.2 -26.01,-37.99zm-301.26 21.67c8.49,-5.76 17.39,-11.91 26.69,-18.38l0 0c10.74,5.02 20.6,9.55 29.82,13.72l0 0c-9.86,4.31 -18.59,8.09 -26.08,11.31l0 0c-8.56,-1.77 -18.63,-3.96 -30.44,-6.64zm97.23 -4.85c9.33,-4.21 19.2,-8.7 29.51,-13.42l0 0c9.65,6.82 18.58,12.93 26.97,18.65l0 0c-10.47,2.58 -19.73,4.78 -27.64,6.65l0 0c-8.13,-3.22 -17.71,-7.14 -28.84,-11.88zm-252.13 22.27c7.84,-11.17 15.9,-22.83 24.17,-34.92l0 0c14.49,4.18 27.92,7.95 40.57,11.42l0 0c-9.55,9.4 -18.59,18.27 -26.97,26.36l0 0c-11.34,-0.77 -23.92,-1.69 -37.78,-2.86zm398.52 -23.11c13.18,-3.54 26.9,-7.28 41,-11.24l0 0c8.42,12.51 16.26,24.06 23.72,34.81l0 0c-13.36,1.09 -25.95,2.04 -37.61,2.9l0 0c-8.2,-7.91 -17.25,-16.68 -27.11,-26.47zm309.61 83.37c-1.27,-26.16 -2.16,-49.94 -2.73,-71.71l0 0c31.49,-5.23 62.2,-11.14 90.8,-17.81l0 0c-5.66,25.45 -11.35,55.55 -17.04,91.92l0 0c-23.6,-0.42 -47.46,-1.27 -71.03,-2.39zm-1042.27 -89.49c25.45,5.66 55.6,11.31 91.93,17.04l0 0c-0.42,23.6 -1.23,47.46 -2.4,71l0 0c-26.15,1.3 -49.97,2.19 -71.67,2.76l0 0c-5.23,-31.49 -11.13,-62.2 -17.85,-90.8zm394.14 33.44c7.31,-7.18 15.02,-14.78 23.04,-22.73l0 0c11.45,3.08 21.95,5.83 31.74,8.31l0 0c-8.98,5.97 -16.86,11.21 -23.67,15.7l0 0c-8.74,-0.25 -19.01,-0.64 -31.11,-1.27zm288.75 -14.32c9.93,-2.51 20.43,-5.23 31.35,-8.13l0 0c8.35,8.38 16.12,16.01 23.33,23.08l0 0c-10.71,0.71 -20.22,1.27 -28.35,1.69l0 0c-7.45,-4.52 -16.18,-10.04 -26.33,-16.64zm-117.06 -3.01c4.24,1.87 8.38,3.68 12.23,5.3l0 0c-4.25,-0.07 -8.6,-0.14 -12.86,-0.14l0 0c-3.79,0 -7.56,0.07 -11.35,0.14l0 0c3.86,-1.69 7.84,-3.47 11.98,-5.3zm-457.58 3.4c20.61,3.11 43.08,6.18 67.68,9.29l0 0c-4.39,18.77 -8.88,37.22 -13.36,55.07l0 0c-17.49,1.16 -36.33,2.25 -56.58,3.36l0 0c1.06,-22.48 1.87,-45.17 2.26,-67.71zm860.98 65.56c-4.17,-17.04 -8.56,-35.39 -13.11,-55.14l0 0c22.3,-2.83 44.78,-6 67.01,-9.51l0 0c0.53,20.82 1.41,43.47 2.61,68.22l0 0c-19.23,-1.02 -38.13,-2.26 -56.51,-3.57zm-498.76 -60.72c4.49,1.09 8.81,2.12 12.86,3.08l0 0c-7.91,1.2 -15.8,2.57 -23.64,4.14l0 0c3.47,-2.3 7.07,-4.74 10.78,-7.21zm178.17 3.33c4.03,-0.99 8.2,-2.02 12.5,-3.08l0 0c3.82,2.54 7.53,4.98 11.03,7.27l0 0c-7.77,-1.55 -15.62,-3.01 -23.53,-4.2zm-456.39 3.18c18.77,2.29 36.45,4.35 52.88,6.15l0 0c-6.64,14.67 -13.18,28.76 -19.44,42.16l0 0c-14.11,1.17 -29.37,2.37 -45.94,3.54l0 0c4.24,-16.85 8.45,-34.24 12.5,-51.85zm713.5 49.09c-5.93,-12.82 -12.26,-26.79 -19.01,-41.95l0 0c17.28,-1.84 34.99,-3.82 52.95,-6.01l0 0c4.28,18.41 8.38,35.7 12.3,51.78l0 0c-16.05,-1.23 -31.53,-2.5 -46.24,-3.82zm-643.45 -41.04c15.03,1.59 28.91,2.98 41.96,4.21l0 0c-7.77,10.96 -15.16,21.24 -22.02,30.68l0 0c-11.27,1.2 -23.85,2.47 -37.64,3.72l0 0c5.76,-12.37 11.7,-25.24 17.7,-38.6zm586.94 35.53c-6.71,-9.16 -14.07,-19.41 -22.05,-30.72l0 0c13.57,-1.23 27.74,-2.54 42.31,-4l0 0c6.11,13.83 11.87,26.55 17.31,38.46l0 0c-13.35,-1.27 -25.98,-2.54 -37.57,-3.75zm-526.08 -29.58c11.81,1.06 22.62,1.91 32.7,2.65l0 0c-7.81,7.45 -14.71,14.03 -20.65,19.58l0 0c-8.62,1.31 -18.87,2.68 -30.85,4.17l0 0c5.97,-8.31 12.26,-17.14 18.79,-26.4zm475.79 23.99c-6.53,-5.79 -14.21,-12.72 -23.04,-20.99l0 0c10.18,-0.74 21,-1.62 32.31,-2.54l0 0c6.78,9.68 13.07,18.55 18.93,26.75l0 0c-10.67,-1.16 -20.14,-2.29 -28.2,-3.22zm-753.3 496.28c0,-286.45 233.05,-519.5 519.55,-519.5l0 0c286.45,0 519.5,233.05 519.5,519.5l0 0c0,286.5 -233.05,519.55 -519.5,519.55l0 0c-286.5,0 -519.55,-233.05 -519.55,-519.55zm332.33 -516.11c4.6,0.29 9.05,0.57 13.21,0.78l0 0c-7.59,2.57 -15.16,5.34 -22.58,8.24l0 0c3.01,-2.9 6.11,-5.87 9.37,-9.02zm362.69 1.31c4.1,-0.28 8.45,-0.57 12.9,-0.88l0 0c3.32,3.18 6.6,6.29 9.65,9.15l0 0c-7.42,-2.9 -14.99,-5.65 -22.55,-8.27zm-449.46 39.05c4.7,-0.53 9.26,-1.09 13.53,-1.59l0 0c-7.24,3.96 -14.35,8.09 -21.38,12.33l0 0c2.51,-3.43 5.16,-7.03 7.84,-10.74zm535.8 -0.81c4.21,0.46 8.63,0.92 13.22,1.45l0 0c2.83,3.82 5.62,7.52 8.2,10.99l0 0c-7.06,-4.32 -14.17,-8.45 -21.42,-12.44zm-590.51 6.22c11.77,-1.06 22.58,-2.08 32.66,-3.08l0 0c-6.4,8.7 -12.05,16.29 -16.89,22.83l0 0c-8.28,2.76 -18.13,5.9 -29.72,9.44l0 0c4.45,-9.2 9.12,-18.98 13.96,-29.19zm645.01 22.16c-5.44,-6.82 -11.73,-14.99 -19.01,-24.64l0 0c10.18,0.99 21,2.04 32.27,3.08l0 0c4.99,10.71 9.65,20.53 14.07,29.65l0 0c-10.35,-3.05 -19.51,-5.73 -27.32,-8.09zm-705.97 -17.46c15.02,-1.06 29.01,-2.08 42.06,-3.15l0 0c-5.76,12.12 -11.28,23.5 -16.37,34l0 0c-10.92,3.18 -23.04,6.57 -36.44,10.25l0 0c3.51,-13.18 7.1,-26.93 10.75,-41.11zm754.6 31.7c-4.98,-10.18 -10.46,-21.52 -16.36,-34.06l0 0c13.57,1.16 27.74,2.32 42.34,3.43l0 0c3.61,14.67 7.07,28.2 10.36,40.86l0 0c-12.93,-3.54 -25.1,-7 -36.34,-10.22zm433.38 85.18c-14.21,-0.28 -29.44,-1.13 -45.34,-2.54l0 0c34.45,-50.53 58.63,-72.76 83.58,-95.74l0 0c15.98,-14.75 31.25,-20.61 45.38,-17.46l0 0c16.33,3.64 29.33,19.12 35.05,33.11l0 0c4.92,12.05 14.11,34.46 2.08,52.07l0 0c-9.65,14.14 -37.11,30.64 -112.35,30.64l0 0c-2.73,0 -5.55,-0.03 -8.42,-0.07zm-1258.34 -112.64c18.87,-1.02 36.62,-2.04 53.12,-3.11l0 0c-3.99,15.59 -7.95,30.57 -11.84,44.85l0 0c-13.64,3.64 -28.48,7.45 -44.6,11.45l0 0c1.24,-17.32 2.33,-35.13 3.33,-53.2zm879.68 42.73c-3.64,-13.71 -7.45,-28.55 -11.45,-44.63l0 0c17.32,1.2 35.13,2.33 53.2,3.29l0 0c0.98,18.87 2.04,36.62 3.11,53.16l0 0c-15.59,-4 -30.61,-7.99 -44.85,-11.81zm-964.39 -39.3c20.85,-0.52 43.51,-1.41 68.25,-2.61l0 0c-1.06,19.27 -2.26,38.17 -3.61,56.55l0 0c-17.03,4.14 -35.38,8.56 -55.13,13.11l0 0c-2.87,-22.3 -6.01,-44.78 -9.51,-67.05zm-335.48 104.51c-21.56,-2.76 -35.87,-10.71 -42.59,-23.57l0 0c-7.7,-14.85 -4.17,-34.74 2.91,-48.14l0 0c6.04,-11.52 17.31,-32.94 38.48,-35.02l0 0c1.1,-0.14 2.23,-0.17 3.43,-0.17l0 0c18.27,0 49.31,13.53 97.62,73.01l0 0c8.98,11.06 18.06,23.25 27.25,36.41l0 0c-21.84,2.15 -40,3 -55.91,3l0 0c-28.45,0 -49.58,-2.71 -71.18,-5.51zm1361.51 -49.12c-1.2,-17.53 -2.29,-36.38 -3.4,-56.58l0 0c22.48,1.05 45.17,1.83 67.71,2.29l0 0c-3.15,20.57 -6.21,43.01 -9.29,67.6l0 0c-18.77,-4.34 -37.22,-8.83 -55.03,-13.31zm173.39 -55.84c-10,24.06 -20.82,52.77 -32.73,87.54l0 0c-23.21,-4.53 -46.55,-9.48 -69.55,-14.71l0 0c3.29,-25.98 6.53,-49.58 9.75,-71.07l0 0c6.15,0.07 12.23,0.11 18.31,0.11l0 0c25.55,0 50.54,-0.57 74.22,-1.87zm-1309.45 0.03c26.05,1.17 56.72,1.52 93.48,0.81l0 0c3.71,23.29 6.99,46.94 10,70.37l0 0c-25.55,5.8 -48.84,10.82 -70.15,15.13l0 0c-10.61,-30.08 -21.77,-59.31 -33.33,-86.31zm302.36 37.43c4.67,-1.38 9.19,-2.76 13.39,-4.03l0 0c-6.61,5.34 -13.11,10.74 -19.48,16.36l0 0c1.94,-3.96 3.96,-8.05 6.08,-12.33zm692.61 -3.01c4.21,1.24 8.59,2.51 13.18,3.82l0 0c2.15,4.42 4.28,8.67 6.29,12.62l0 0c-6.33,-5.62 -12.86,-11.1 -19.48,-16.44zm-745.59 17.85c11.41,-3.08 21.88,-5.94 31.63,-8.74l0 0c-4.77,9.69 -9.01,18.17 -12.68,25.45l0 0c-7.67,4.14 -16.79,8.98 -27.6,14.46l0 0c2.79,-9.82 5.69,-20.25 8.66,-31.17zm794.79 19.72c-4.18,-7.66 -8.98,-16.82 -14.46,-27.6l0 0c9.82,2.76 20.25,5.69 31.21,8.66l0 0c3.04,11.42 5.9,21.92 8.7,31.64l0 0c-9.69,-4.78 -18.17,-9.02 -25.45,-12.69zm-854.03 -4.52c14.64,-3.61 28.21,-7.07 40.9,-10.36l0 0c-3.61,12.9 -6.99,25.1 -10.22,36.3l0 0c-10.18,5.02 -21.55,10.5 -34.1,16.4l0 0c1.17,-13.57 2.33,-27.74 3.43,-42.34zm899.4 26.96c-3.18,-10.88 -6.57,-23 -10.25,-36.4l0 0c13.18,3.5 26.93,7.13 41.11,10.71l0 0c1.06,15.06 2.08,29.01 3.15,42.06l0 0c-12.12,-5.76 -23.5,-11.24 -34,-16.37zm-967.97 -10.56c18.41,-4.28 35.74,-8.35 51.82,-12.27l0 0c-1.23,16.05 -2.54,31.5 -3.89,46.24l0 0c-12.79,5.93 -26.79,12.26 -41.95,19.01l0 0c-1.77,-17.28 -3.79,-35.02 -5.98,-52.98zm1019.15 35.05c-1.17,-14.07 -2.37,-29.36 -3.54,-45.9l0 0c16.85,4.2 34.24,8.38 51.85,12.47l0 0c-2.29,18.76 -4.35,36.4 -6.15,52.87l0 0c-14.63,-6.64 -28.76,-13.14 -42.16,-19.44zm-1101.96 -16.93c20.43,-4.17 42.55,-8.94 66.76,-14.46l0 0c2.29,19.17 4.42,38.03 6.29,56.3l0 0c-16.08,7.07 -33.4,14.57 -52.07,22.48l0 0c-6.64,-21.42 -13.68,-43.05 -20.99,-64.33zm1159.84 43.47c1.94,-17.42 4.1,-36.15 6.54,-56.26l0 0c21.91,4.92 44.14,9.65 66.23,14l0 0c-6.61,19.73 -13.53,41.32 -20.86,65l0 0c-17.7,-7.6 -35.12,-15.2 -51.92,-22.73zm-964.01 -40.46c4.39,-2.15 8.63,-4.28 12.58,-6.29l0 0c-5.62,6.36 -11.1,12.86 -16.4,19.48l0 0c1.2,-4.21 2.47,-8.59 3.82,-13.18zm828.79 -5.05c3.96,1.94 8.05,3.96 12.33,6.04l0 0c1.38,4.67 2.76,9.23 4.03,13.46l0 0c-5.34,-6.64 -10.74,-13.14 -16.36,-19.51zm-1133.05 20.71c25.87,-3.4 56.12,-8.38 92.21,-15.41l0 0c7.7,22.3 15.05,44.99 22.05,67.5l0 0c-24.13,10.18 -46.23,19.16 -66.44,27.11l0 0c-15.7,-27.82 -31.74,-54.64 -47.82,-79.21zm1335.39 53.93c7.74,-25.02 15.06,-47.71 21.95,-68.32l0 0c31.39,5.9 62.27,10.82 91.43,14.32l0 0c-14.03,21.98 -29.64,48.35 -47.43,80.55l0 0c-22.05,-8.45 -44.18,-17.39 -65.95,-26.55zm-1080.71 -45.76c10.71,-5.02 20.5,-9.65 29.61,-14.07l0 0c-3.01,10.32 -5.72,19.44 -8.05,27.25l0 0c-6.86,5.44 -14.99,11.77 -24.68,19.05l0 0c1.03,-10.18 2.09,-20.96 3.12,-32.23zm920.32 16.64c-2.76,-8.27 -5.9,-18.09 -9.44,-29.68l0 0c9.2,4.42 18.98,9.12 29.19,13.93l0 0c1.06,11.77 2.08,22.58 3.08,32.69l0 0c-8.7,-6.39 -16.29,-12.05 -22.83,-16.93zm-975.98 8.63c13.75,-6.11 26.5,-11.87 38.41,-17.31l0 0c-1.27,13.35 -2.5,25.94 -3.75,37.53l0 0c-9.15,6.71 -19.4,14.07 -30.75,22.09l0 0c-1.16,-13.57 -2.5,-27.74 -3.92,-42.31zm1016.77 21.42c-1.2,-11.31 -2.47,-23.85 -3.75,-37.71l0 0c12.37,5.8 25.24,11.7 38.6,17.74l0 0c-1.59,14.99 -2.98,28.91 -4.21,41.92l0 0c-10.92,-7.74 -21.21,-15.13 -30.65,-21.95zm355.41 78.03c-13.97,-2.68 -28.81,-6.18 -44.25,-10.35l0 0c42.73,-43.79 70.4,-61.5 98.96,-79.77l0 0c18.26,-11.74 34.35,-14.89 47.75,-9.34l0 0c15.41,6.43 25.52,23.93 28.73,38.7l0 0c2.76,12.72 7.87,36.41 -6.96,51.6l0 0c-8.24,8.41 -24.89,16.47 -58.46,16.47l0 0c-17.14,0 -38.7,-2.08 -65.77,-7.32zm-1821.01 -6.21c-10.18,-13.29 -10.14,-33.47 -5.55,-47.93l0 0c4,-12.37 11.35,-35.42 31.85,-41.18l0 0c3.01,-0.85 6.5,-1.38 10.6,-1.38l0 0c19.13,0 50.68,11.52 101.55,55.56l0 0c10.74,9.37 21.84,19.8 33.11,31.14l0 0c-58.85,16.51 -91.68,18.02 -125.53,19.62l0 0c-1.7,0.07 -3.4,0.11 -5.02,0.11l0 0c-19.16,0 -32.91,-5.34 -41.01,-15.94zm384.11 -65.18c17.39,-7.42 33.72,-14.46 48.88,-21.1l0 0c1.55,16.01 2.97,31.49 4.24,46.24l0 0c-11.62,8.01 -24.24,16.71 -37.99,26.01l0 0c-4.77,-16.72 -9.86,-33.86 -15.13,-51.14zm1127.68 26.3c1.27,-14.07 2.76,-29.3 4.49,-45.8l0 0c15.87,7.07 32.2,14.18 48.88,21.28l0 0c-5.55,18.09 -10.64,35.12 -15.27,50.99l0 0c-13.28,-9.08 -26.01,-17.95 -38.1,-26.47zm-1012.71 -25.1c3.86,-2.83 7.56,-5.62 11.03,-8.2l0 0c-4.35,7.03 -8.49,14.17 -12.48,21.42l0 0c0.5,-4.21 0.96,-8.63 1.45,-13.22zm940.16 -6.78c3.43,2.5 7.03,5.16 10.78,7.88l0 0c0.49,4.7 1.05,9.26 1.55,13.53l0 0c-3.96,-7.24 -8.09,-14.39 -12.33,-21.42zm-1133.51 37.78c19.37,-7.63 40.35,-16.19 63.23,-25.8l0 0c5.58,18.44 10.92,36.65 15.97,54.36l0 0c-14.63,9.75 -30.36,20.11 -47.36,31.21l0 0c-10.28,-20.01 -20.96,-40.08 -31.84,-59.77zm1258.44 30.33c4.92,-16.86 10.32,-34.91 16.19,-54.32l0 0c20.75,8.7 41.81,17.21 62.84,25.27l0 0c-9.93,18.34 -20.53,38.38 -31.84,60.4l0 0c-16.15,-10.5 -31.95,-21.03 -47.19,-31.35zm-1109.8 -29.3c9.73,-6.78 18.56,-13.07 26.76,-18.97l0 0c-1.16,10.71 -2.26,20.18 -3.22,28.24l0 0c-5.8,6.53 -12.72,14.21 -21,23.04l0 0c-0.74,-10.22 -1.58,-21 -2.54,-32.31zm1017.95 13.11c-1.27,-8.66 -2.69,-18.9 -4.18,-30.89l0 0c8.31,5.94 17.14,12.26 26.37,18.8l0 0c-1.02,11.76 -1.91,22.62 -2.65,32.69l0 0c-7.45,-7.81 -14,-14.71 -19.54,-20.61zm-1270.16 23.08c24.89,-7.81 53.83,-17.95 88.15,-31.18l0 0c11.45,20.65 22.65,41.68 33.43,62.67l0 0c-22.02,14.21 -42.2,26.9 -60.72,38.21l0 0c-20.29,-24.64 -40.74,-48.28 -60.86,-69.7zm1423.05 33.43c11.98,-23.25 23.11,-44.35 33.5,-63.44l0 0c29.86,11.2 59.41,21.45 87.54,29.97l0 0c-17.67,19.2 -37.64,42.45 -60.71,71.04l0 0c-20.26,-12.15 -40.47,-24.81 -60.33,-37.57zm-1221.28 -35.05c12.51,-8.42 24.07,-16.26 34.85,-23.72l0 0c1.09,13.36 2.01,25.95 2.83,37.61l0 0c-7.84,8.2 -16.65,17.25 -26.44,27.11l0 0c-3.54,-13.18 -7.28,-26.9 -11.24,-41zm1103.34 15.16c0.77,-11.34 1.69,-23.89 2.86,-37.71l0 0c11.17,7.77 22.83,15.87 34.92,24.13l0 0c-4.18,14.5 -7.95,27.96 -11.42,40.57l0 0c-9.44,-9.58 -18.27,-18.62 -26.36,-27zm-1162.15 23.68c15.84,-10.29 30.68,-20.08 44.46,-29.23l0 0c4.31,15.52 8.38,30.47 12.19,44.78l0 0c-10.04,9.93 -20.99,20.71 -32.9,32.2l0 0c-7.6,-15.63 -15.55,-31.57 -23.75,-47.75zm113.38 -18.77c3.22,-3.32 6.29,-6.6 9.16,-9.65l0 0c-2.9,7.42 -5.66,14.96 -8.28,22.59l0 0c-0.28,-4.18 -0.56,-8.49 -0.88,-12.94zm1088.49 35.63c3.71,-13.68 7.84,-28.41 12.4,-44.39l0 0c14.39,9.73 29.26,19.59 44.42,29.44l0 0c-8.59,16.86 -16.54,32.76 -23.85,47.61l0 0c-11.52,-11.27 -22.55,-22.19 -32.97,-32.66zm-65.67 -43.82c2.9,3.04 5.9,6.18 9.02,9.44l0 0c-0.29,4.56 -0.57,8.98 -0.78,13.18l0 0c-2.57,-7.63 -5.34,-15.13 -8.24,-22.62zm-1061.23 47.54c8.38,-8.38 15.97,-16.12 23.04,-23.36l0 0c0.67,10.74 1.27,20.25 1.72,28.38l0 0c-4.59,7.45 -10.07,16.18 -16.68,26.33l0 0c-2.54,-9.93 -5.23,-20.43 -8.08,-31.35zm1084.55 9.12c0.25,-8.73 0.64,-19.06 1.27,-31.14l0 0c7.18,7.31 14.75,15.06 22.73,23.08l0 0c-3.08,11.45 -5.83,21.94 -8.31,31.77l0 0c-5.97,-9.01 -11.21,-16.89 -15.7,-23.71zm-1231.16 15.69c17.78,-10.88 36.97,-22.97 57.79,-36.4l0 0c8.74,17.17 17.11,34.21 25.17,50.75l0 0c-12.68,12.12 -26.37,25.13 -41.21,38.94l0 0c-13.62,-17.91 -27.61,-35.77 -41.75,-53.3zm1318.86 16.23c7.73,-15.77 16.22,-32.66 25.38,-50.72l0 0c18.9,12.16 38.17,24.21 57.47,35.84l0 0c-12.97,16.3 -26.86,34.21 -41.85,53.94l0 0c-14.07,-13.18 -27.81,-26.26 -41,-39.05zm251.35 53.29c-13.28,-5.09 -27.28,-11.09 -41.74,-17.88l0 0c49.66,-35.66 79.98,-48.35 111.29,-61.38l0 0c20.04,-8.35 36.41,-8.63 48.63,-0.85l0 0c14.11,8.98 21,27.99 21.6,43.12l0 0c0.49,13 1.44,37.22 -15.8,49.62l0 0c-6.64,4.74 -17.21,8.59 -34.03,8.59l0 0c-19.94,0 -48.6,-5.41 -89.96,-21.21zm-1467.29 -51.52c10.85,-10.46 20.89,-20.22 30.19,-29.4l0 0c3.4,12.97 6.5,25.2 9.33,36.55l0 0c-6.29,9.4 -13.39,19.83 -21.31,31.24l0 0c-5.8,-12.37 -11.87,-25.2 -18.2,-38.38zm-398.27 67.54c-12.3,-11.31 -15.8,-31.22 -13.76,-46.24l0 0c1.73,-12.86 5.02,-36.86 24.17,-46.08l0 0c4.88,-2.33 11.42,-3.96 20.05,-3.96l0 0c19.9,0 51.1,8.66 99.84,37.89l0 0c12.19,7.31 24.92,15.65 38.02,24.85l0 0c-55.13,26.5 -87.15,33.71 -120.23,41.14l0 0c-6.92,1.55 -13.32,2.33 -19.16,2.33l0 0c-12.05,0 -21.74,-3.33 -28.94,-9.93zm1554.62 -59.06c2.68,-11.07 5.83,-23.26 9.37,-36.69l0 0c9.61,9.65 19.72,19.62 30.22,29.82l0 0c-6.64,13.57 -12.72,26.16 -18.34,38l0 0c-7.59,-11.07 -14.74,-21.53 -21.24,-31.14zm-1354.76 28.13c23.11,-12.02 49.87,-27.04 81.36,-46.01l0 0c14.85,18.33 29.54,37.14 43.83,55.94l0 0c-19.2,17.77 -36.9,33.79 -53.16,48.17l0 0c-24.24,-20.74 -48.53,-40.49 -72.03,-58.1zm1467.44 11.94c15.83,-20.89 30.47,-39.72 44,-56.68l0 0c27.49,16.22 54.81,31.45 81,44.67l0 0c-20.67,15.87 -44.42,35.3 -72.13,59.44l0 0c-17.81,-15.48 -35.56,-31.45 -52.87,-47.43zm-1211.8 -38.27c2.54,-3.82 5.02,-7.53 7.31,-11.03l0 0c-1.59,7.77 -2.97,15.62 -4.21,23.53l0 0c-0.95,-3.99 -2.01,-8.2 -3.11,-12.5zm1074.17 -9.48c2.3,3.43 4.74,7.03 7.21,10.75l0 0c-1.09,4.45 -2.12,8.76 -3.08,12.82l0 0c-1.2,-7.91 -2.57,-15.8 -4.14,-23.57zm-1182.6 47.68c13.86,-12.93 26.76,-25.1 38.74,-36.55l0 0c6.96,14.5 13.57,28.59 19.76,41.99l0 0c-8.09,11.52 -17.03,24 -26.79,37.43l0 0c-10.18,-14.07 -20.82,-28.41 -31.71,-42.87zm1239.65 6.75c6.01,-12.76 12.62,-26.62 19.87,-41.53l0 0c12.51,12.05 25.48,24.38 38.7,36.76l0 0c-11.38,15.05 -22.02,29.33 -31.81,42.66l0 0c-9.37,-13.04 -18.31,-25.77 -26.76,-37.89zm-1162.21 0.46c6.75,-9.69 12.93,-18.62 18.62,-27.01l0 0c2.54,10.47 4.77,19.73 6.61,27.61l0 0c-3.19,8.17 -7.07,17.7 -11.81,28.87l0 0c-4.2,-9.33 -8.69,-19.2 -13.42,-29.47zm1118.28 4.88c1.77,-8.56 3.93,-18.66 6.64,-30.47l0 0c5.76,8.45 11.91,17.38 18.38,26.68l0 0c-5.02,10.71 -9.55,20.61 -13.72,29.83l0 0c-4.31,-9.87 -8.09,-18.63 -11.31,-26.05zm-1258.34 44.95c15.59,-13.75 32.38,-28.98 50.57,-45.8l0 0c11.56,15.37 22.8,30.68 33.58,45.59l0 0c-10.36,14.14 -21.6,29.29 -33.79,45.48l0 0c-16.5,-15.23 -33.36,-30.43 -50.36,-45.27zm1339.14 1.66c10.39,-14.14 21.63,-29.33 33.78,-45.52l0 0c16.54,15.27 33.4,30.5 50.36,45.27l0 0c-15.55,13.79 -32.41,29.01 -50.57,45.84l0 0c-11.55,-15.42 -22.79,-30.72 -33.57,-45.59zm-1234.67 -1.77c8.91,-12.19 17.04,-23.53 24.64,-34.24l0 0c5.59,12.22 10.75,23.75 15.52,34.38l0 0c-4.56,10.4 -9.76,21.88 -15.59,34.5l0 0c-7.81,-11.17 -16.01,-22.76 -24.57,-34.64zm1174.2 1.48c4.59,-10.35 9.79,-21.87 15.58,-34.45l0 0c7.85,11.13 16.05,22.72 24.57,34.63l0 0c-8.87,12.19 -17.03,23.57 -24.64,34.21l0 0c-5.58,-12.23 -10.78,-23.68 -15.51,-34.39zm-1116.02 -1.3c1.83,-4.24 3.61,-8.38 5.27,-12.23l0 0c-0.07,4.25 -0.14,8.6 -0.14,12.86l0 0c0,3.79 0.07,7.56 0.14,11.35l0 0c-1.66,-3.86 -3.47,-7.84 -5.27,-11.98zm1092.87 0.63c0,-3.78 -0.07,-7.52 -0.14,-11.27l0 0c1.69,3.82 3.47,7.77 5.3,11.91l0 0c-1.83,4.28 -3.68,8.42 -5.3,12.3l0 0c0.07,-4.32 0.14,-8.6 0.14,-12.94zm-1340.09 69.7c20.72,-15.83 44.39,-35.26 72.13,-59.44l0 0c17.81,15.48 35.56,31.45 52.88,47.46l0 0c-15.8,20.86 -30.43,39.69 -44,56.72l0 0c-27.46,-16.25 -54.78,-31.49 -81.01,-44.74zm1467.26 -9.97c19.23,-17.81 36.86,-33.78 53.19,-48.17l0 0c24.24,20.78 48.49,40.5 72.03,58.07l0 0c-23.18,12.05 -49.9,27.04 -81.4,46.05l0 0c-14.84,-18.38 -29.54,-37.18 -43.82,-55.95zm-1320.2 -3.89c11.38,-15.13 21.99,-29.36 31.81,-42.73l0 0c9.34,13.11 18.27,25.77 26.76,37.93l0 0c-6.01,12.79 -12.65,26.57 -19.94,41.53l0 0c-12.47,-12.09 -25.41,-24.38 -38.63,-36.73zm1239.65 -3.5c8.17,-11.55 17.07,-24.03 26.83,-37.46l0 0c10.21,14.07 20.82,28.45 31.7,42.9l0 0c-13.82,12.9 -26.75,25.1 -38.73,36.55l0 0c-6.96,-14.53 -13.57,-28.55 -19.8,-41.99zm-1162.18 -2.87c4.99,-10.74 9.51,-20.6 13.68,-29.82l0 0c4.32,9.86 8.13,18.59 11.31,26.08l0 0c-1.73,8.56 -3.92,18.63 -6.67,30.44l0 0c-5.73,-8.49 -11.88,-17.39 -18.31,-26.69zm1118 0.46c3.22,-8.12 7.14,-17.67 11.88,-28.8l0 0c4.21,9.3 8.7,19.2 13.42,29.44l0 0c-6.78,9.68 -12.93,18.62 -18.65,26.96l0 0c-2.54,-10.42 -4.78,-19.72 -6.65,-27.6zm319.47 47.19c-12.23,-7.31 -24.96,-15.7 -37.99,-24.89l0 0c55.09,-26.51 87.15,-33.68 120.2,-41.14l0 0c21.24,-4.74 37.39,-2.19 48.1,7.63l0 0c12.33,11.27 15.8,31.17 13.75,46.19l0 0c-1.73,12.89 -4.98,36.86 -24.17,46.08l0 0c-4.88,2.36 -11.38,4.03 -20.08,4.03l0 0c-19.86,0 -51.06,-8.73 -99.8,-37.92zm-1853.45 37.74c-14.07,-9.01 -20.96,-27.99 -21.56,-43.11l0 0c-0.53,-13.01 -1.48,-37.22 15.8,-49.59l0 0c6.61,-4.77 17.18,-8.66 34.03,-8.66l0 0c19.91,0 48.6,5.44 89.89,21.2l0 0c13.35,5.09 27.32,11.1 41.81,17.92l0 0c-49.69,35.67 -80.02,48.32 -111.25,61.35l0 0c-10.4,4.35 -19.84,6.54 -28.17,6.54l0 0c-7.77,0 -14.64,-1.91 -20.54,-5.66zm389.59 -30.25c6.61,-13.53 12.68,-26.12 18.3,-37.96l0 0c7.63,11.03 14.74,21.49 21.28,31.17l0 0c-2.73,10.99 -5.83,23.26 -9.37,36.66l0 0c-9.68,-9.65 -19.76,-19.62 -30.22,-29.86zm1156.38 -5.48c6.33,-9.44 13.43,-19.87 21.35,-31.25l0 0c5.76,12.34 11.8,25.21 18.16,38.38l0 0c-10.85,10.47 -20.89,20.22 -30.18,29.44l0 0c-3.4,-13.04 -6.5,-25.24 -9.34,-36.58zm-1259.23 23.78c12.93,-16.29 26.86,-34.21 41.85,-53.97l0 0c14.07,13.18 27.78,26.3 40.97,39.09l0 0c-7.74,15.73 -16.19,32.62 -25.38,50.68l0 0c-18.91,-12.16 -38.17,-24.21 -57.44,-35.81zm1318.75 -13c12.65,-12.16 26.37,-25.1 41.18,-38.95l0 0c13.61,17.88 27.57,35.81 41.74,53.3l0 0c-17.74,10.89 -36.97,22.94 -57.79,36.37l0 0c-8.69,-17.17 -17.14,-34.17 -25.13,-50.71zm-1158.61 -15.2c1.1,-4.49 2.12,-8.81 3.08,-12.86l0 0c1.2,7.91 2.61,15.8 4.14,23.6l0 0c-2.29,-3.43 -4.7,-7.03 -7.21,-10.74zm1078.27 -11.24c0.99,4 2.02,8.17 3.08,12.47l0 0c-2.54,3.86 -4.98,7.6 -7.27,11.1l0 0c1.55,-7.84 3.01,-15.66 4.2,-23.57zm-1091.88 64.5c3.05,-11.41 5.8,-21.91 8.28,-31.74l0 0c6.01,9.02 11.24,16.9 15.66,23.68l0 0c-0.22,8.77 -0.6,19.05 -1.27,31.14l0 0c-7.1,-7.31 -14.71,-15.02 -22.66,-23.08zm1083.79 -3.92c4.52,-7.42 10.04,-16.19 16.64,-26.34l0 0c2.51,9.9 5.23,20.4 8.13,31.36l0 0c-8.38,8.34 -16.01,16.08 -23.08,23.32l0 0c-0.71,-10.71 -1.27,-20.22 -1.69,-28.34zm-1159 23.64c8.56,-16.86 16.54,-32.73 23.89,-47.58l0 0c11.48,11.24 22.48,22.2 32.94,32.7l0 0c-3.72,13.61 -7.81,28.41 -12.37,44.31l0 0c-14.42,-9.72 -29.26,-19.58 -44.46,-29.43zm1202.04 -13.65c10.04,-9.93 20.96,-20.68 32.94,-32.2l0 0c7.6,15.63 15.56,31.64 23.71,47.75l0 0c-15.83,10.32 -30.64,20.08 -44.45,29.23l0 0c-4.32,-15.48 -8.39,-30.47 -12.2,-44.78zm-1344.43 52.88c17.6,-19.24 37.6,-42.52 60.68,-71.11l0 0c20.25,12.15 40.5,24.81 60.33,37.57l0 0c-11.95,23.32 -23.08,44.39 -33.47,63.48l0 0c-29.86,-11.21 -59.45,-21.46 -87.54,-29.94zm1422.48 -31.6c22.02,-14.18 42.16,-26.9 60.75,-38.21l0 0c20.25,24.68 40.75,48.28 60.82,69.7l0 0c-24.88,7.81 -53.79,17.99 -88.1,31.21l0 0c-11.45,-20.64 -22.66,-41.71 -33.47,-62.7zm-1221.31 31.56c4.17,-14.49 7.95,-27.95 11.41,-40.6l0 0c9.44,9.58 18.27,18.62 26.41,27l0 0c-0.78,11.34 -1.73,23.89 -2.87,37.75l0 0c-11.2,-7.81 -22.87,-15.87 -34.95,-24.14zm1103.4 -12.33c7.88,-8.24 16.68,-17.21 26.44,-27.07l0 0c3.54,13.14 7.31,26.86 11.27,40.96l0 0c-12.51,8.42 -24.06,16.33 -34.81,23.75l0 0c-1.09,-13.39 -2.04,-26.01 -2.9,-37.64zm-1048.69 -7.38c0.28,-4.6 0.56,-9.02 0.77,-13.18l0 0c2.58,7.59 5.34,15.13 8.24,22.58l0 0c-2.86,-3.01 -5.86,-6.11 -9.01,-9.4zm1030.95 -11.7c0.28,4.17 0.57,8.45 0.88,12.9l0 0c-3.18,3.36 -6.29,6.6 -9.15,9.72l0 0c2.9,-7.49 5.65,-14.99 8.27,-22.62zm-1183.81 67.29c9.97,-18.27 20.54,-38.35 31.88,-60.37l0 0c16.12,10.5 31.92,21.03 47.15,31.32l0 0c-4.91,16.86 -10.28,34.95 -16.22,54.36l0 0c-20.71,-8.7 -41.78,-17.21 -62.81,-25.31zm1258.31 -27.25c14.56,-9.79 30.33,-20.15 47.29,-31.21l0 0c10.32,19.97 20.99,40.04 31.88,59.76l0 0c-19.37,7.6 -40.36,16.15 -63.2,25.77l0 0c-5.62,-18.41 -10.95,-36.65 -15.97,-54.32zm246.44 30.47c-10.78,-9.34 -21.84,-19.8 -33.12,-31.11l0 0c58.85,-16.5 91.68,-18.05 125.58,-19.65l0 0c21.66,-1.02 37.18,4.35 46.01,15.87l0 0c10.14,13.25 10.14,33.47 5.51,47.89l0 0c-3.96,12.4 -11.34,35.45 -31.81,41.18l0 0c-3.01,0.85 -6.54,1.37 -10.64,1.37l0 0c-19.09,0 -50.68,-11.48 -101.54,-55.55zm-1785.02 58.35c-15.41,-6.39 -25.52,-23.92 -28.73,-38.73l0 0c-2.76,-12.72 -7.91,-36.37 6.96,-51.6l0 0c8.24,-8.41 24.85,-16.47 58.46,-16.47l0 0c17.1,0 38.66,2.12 65.77,7.35l0 0c14,2.68 28.8,6.22 44.28,10.36l0 0c-42.76,43.75 -70.4,61.49 -98.95,79.8l0 0c-12.44,7.95 -23.82,11.95 -34.07,11.95l0 0c-4.81,0 -9.41,-0.88 -13.72,-2.65zm428.96 -62.34c1.02,-11.77 1.9,-22.58 2.64,-32.69l0 0c7.46,7.84 13.97,14.71 19.55,20.61l0 0c1.31,8.66 2.68,18.9 4.17,30.89l0 0c-8.31,-5.94 -17.1,-12.23 -26.36,-18.8zm1016.6 -8.27c5.79,-6.54 12.72,-14.18 20.99,-23.01l0 0c0.74,10.22 1.62,21.03 2.54,32.3l0 0c-9.68,6.79 -18.55,13.08 -26.75,18.98l0 0c1.2,-10.71 2.29,-20.18 3.22,-28.27zm-1087.22 40.74c5.48,-18.09 10.57,-35.09 15.27,-50.96l0 0c13.25,9.09 26.02,17.92 38.1,26.44l0 0c-1.27,14.07 -2.76,29.33 -4.49,45.83l0 0c-15.87,-7.06 -32.27,-14.21 -48.88,-21.31zm1127.93 -23.32c11.59,-8.05 24.2,-16.75 37.99,-26.02l0 0c4.77,16.69 9.79,33.82 15.09,51.14l0 0c-17.42,7.38 -33.71,14.42 -48.88,21.07l0 0c-1.55,-15.98 -2.97,-31.5 -4.2,-46.19zm-1261.39 86.66c14.04,-21.98 29.69,-48.35 47.47,-80.55l0 0c22.05,8.49 44.14,17.42 65.91,26.55l0 0c-7.73,25.02 -15.02,47.71 -21.94,68.32l0 0c-31.39,-5.83 -62.27,-10.82 -91.44,-14.32zm1334.54 -52.17c24.1,-10.18 46.15,-19.16 66.41,-27.11l0 0c15.69,27.82 31.74,54.68 47.78,79.21l0 0c-25.8,3.43 -56.08,8.38 -92.17,15.45l0 0c-7.7,-22.3 -15.06,-45.03 -22.02,-67.54zm-1085.94 -11.66c-0.57,-4.7 -1.06,-9.26 -1.56,-13.53l0 0c3.93,7.24 8.02,14.35 12.3,21.38l0 0c-3.43,-2.51 -7.03,-5.16 -10.74,-7.84zm-50.51 28.91c1.63,-15.03 3.01,-28.91 4.25,-41.96l0 0c10.95,7.74 21.17,15.13 30.64,22.02l0 0c1.24,11.24 2.47,23.82 3.75,37.64l0 0c-12.36,-5.76 -25.27,-11.7 -38.63,-17.7zm1002.85 -41.04c-0.49,4.24 -0.95,8.66 -1.45,13.21l0 0c-3.82,2.83 -7.52,5.59 -10.99,8.21l0 0c4.28,-7.03 8.45,-14.22 12.44,-21.42zm14.14 22.23c9.16,-6.68 19.41,-14.07 30.72,-22.06l0 0c1.23,13.57 2.54,27.71 4,42.31l0 0c-13.83,6.08 -26.55,11.84 -38.46,17.32l0 0c1.27,-13.36 2.54,-25.95 3.75,-37.57zm-1107.4 71.14c6.65,-19.72 13.62,-41.35 20.93,-64.99l0 0c17.7,7.56 35.05,15.16 51.89,22.68l0 0c-1.91,17.46 -4.11,36.2 -6.54,56.3l0 0c-21.91,-4.95 -44.14,-9.65 -66.27,-14zm1159.63 -40.67c16.05,-7.07 33.37,-14.57 52,-22.48l0 0c6.67,21.45 13.71,43.08 21.03,64.4l0 0c-20.43,4.13 -42.59,8.91 -66.73,14.38l0 0c-2.33,-19.12 -4.42,-37.95 -6.29,-56.29zm-1013.31 14.14c-1.02,-11.77 -2.04,-22.58 -3.08,-32.66l0 0c8.7,6.4 16.3,12.05 22.8,16.89l0 0c2.8,8.28 5.97,18.13 9.51,29.69l0 0c-9.19,-4.42 -19.01,-9.09 -29.23,-13.93zm918.53 -12.3c6.82,-5.41 15.02,-11.73 24.67,-19.01l0 0c-0.99,10.18 -2.04,20.96 -3.11,32.24l0 0c-10.71,4.98 -20.5,9.65 -29.62,14.07l0 0c3.01,-10.36 5.73,-19.48 8.06,-27.29zm-982.46 56.55c2.29,-18.77 4.35,-36.45 6.18,-52.92l0 0c14.63,6.65 28.77,13.18 42.13,19.48l0 0c1.16,14.07 2.36,29.37 3.54,45.91l0 0c-16.86,-4.21 -34.21,-8.42 -51.85,-12.47zm1019.49 -32.34c12.82,-5.98 26.79,-12.3 41.95,-19.06l0 0c1.84,17.28 3.82,35.02 6.01,53.02l0 0c-18.41,4.24 -35.7,8.34 -51.78,12.26l0 0c1.23,-16.05 2.5,-31.56 3.82,-46.23zm-906.19 11.8c-1.38,-4.67 -2.73,-9.19 -4,-13.39l0 0c5.27,6.61 10.71,13.07 16.33,19.44l0 0c-3.93,-1.9 -8.05,-3.92 -12.33,-6.04zm844.97 -12.12c-1.24,4.17 -2.51,8.56 -3.82,13.11l0 0c-4.42,2.18 -8.67,4.35 -12.62,6.32l0 0c5.62,-6.36 11.1,-12.82 16.44,-19.44zm-889.65 49.37c-1.03,-15.02 -2.09,-29.01 -3.12,-42.06l0 0c12.12,5.76 23.5,11.24 34,16.37l0 0c3.15,10.92 6.53,23.04 10.21,36.44l0 0c-13.18,-3.51 -26.93,-7.1 -41.1,-10.75zm1246 -2.26c-8.94,-11.06 -18.09,-23.25 -27.21,-36.4l0 0c60.86,-6.04 93.44,-1.84 127.05,2.47l0 0c21.56,2.79 35.92,10.71 42.59,23.6l0 0c7.7,14.81 4.18,34.74 -2.86,48.14l0 0c-6.08,11.49 -17.36,32.94 -38.53,35.02l0 0c-1.09,0.11 -2.22,0.18 -3.43,0.18l0 0c-18.3,0 -49.3,-13.53 -97.62,-73.02zm-346.39 -22.4c10.18,-5.02 21.52,-10.5 34.06,-16.4l0 0c-1.16,13.61 -2.32,27.74 -3.43,42.34l0 0c-14.67,3.65 -28.2,7.1 -40.86,10.39l0 0c3.54,-12.96 7,-25.13 10.22,-36.33zm-1315.92 99.56c-16.33,-3.65 -29.3,-19.17 -35.02,-33.15l0 0c-4.95,-12.05 -14.11,-34.46 -2.12,-52.03l0 0c9.65,-14.14 37.04,-30.65 112.11,-30.65l0 0c2.8,0 5.69,0.04 8.67,0.11l0 0c14.24,0.21 29.43,1.05 45.37,2.5l0 0c-34.49,50.47 -58.67,72.77 -83.54,95.75l0 0c-13.22,12.15 -25.98,18.27 -38,18.27l0 0c-2.5,0 -5.02,-0.29 -7.45,-0.81zm260.02 -93.63c23.14,4.5 46.51,9.44 69.52,14.68l0 0c-3.29,25.97 -6.54,49.58 -9.76,71.07l0 0c-31.91,-0.28 -63.19,0.18 -92.53,1.83l0 0c10.04,-24.1 20.86,-52.8 32.77,-87.58zm1173.24 16.33c25.52,-5.83 48.81,-10.81 70.12,-15.16l0 0c10.6,30.12 21.77,59.34 33.33,86.34l0 0c-26.05,-1.16 -56.69,-1.51 -93.48,-0.81l0 0c-3.68,-23.32 -7.03,-46.97 -9.97,-70.37zm-957.44 18.13c-3.08,-11.41 -5.97,-21.88 -8.7,-31.63l0 0c9.69,4.77 18.2,9.05 25.49,12.68l0 0c4.14,7.67 8.98,16.79 14.42,27.6l0 0c-9.82,-2.79 -20.29,-5.69 -31.21,-8.66zm792.6 -16.01c7.67,-4.14 16.79,-8.98 27.57,-14.42l0 0c-2.76,9.82 -5.65,20.29 -8.66,31.21l0 0c-11.42,3.08 -21.92,5.97 -31.64,8.7l0 0c4.78,-9.69 9.05,-18.2 12.72,-25.49zm-932.05 67.54c3.08,-20.58 6.18,-43.05 9.3,-67.65l0 0c18.72,4.39 37.18,8.88 55.02,13.32l0 0c1.13,17.53 2.3,36.37 3.36,56.62l0 0c-22.44,-1.09 -45.16,-1.91 -67.67,-2.29zm1025.68 -52.84c17.04,-4.18 35.39,-8.56 55.14,-13.15l0 0c2.83,22.3 6,44.81 9.51,67.04l0 0c-20.82,0.57 -43.47,1.41 -68.22,2.61l0 0c1.06,-19.23 2.26,-38.17 3.57,-56.5zm-941.53 55.94c-0.95,-18.9 -1.97,-36.62 -3.08,-53.12l0 0c15.59,3.99 30.61,7.95 44.85,11.84l0 0c3.65,13.64 7.46,28.48 11.49,44.6l0 0c-17.32,-1.27 -35.13,-2.37 -53.27,-3.33zm108.08 -39.86c-2.18,-4.39 -4.35,-8.63 -6.32,-12.58l0 0c6.36,5.58 12.82,11.1 19.44,16.4l0 0c-4.17,-1.24 -8.56,-2.51 -13.11,-3.82zm772.1 -0.5c13.68,-3.64 28.49,-7.45 44.6,-11.45l0 0c-1.23,17.32 -2.33,35.13 -3.29,53.23l0 0c-18.9,0.99 -36.62,2.01 -53.16,3.12l0 0c4,-15.59 7.99,-30.61 11.84,-44.89zm-60.26 -10.99c-1.94,3.93 -3.96,8.05 -6.04,12.33l0 0c-4.7,1.38 -9.23,2.73 -13.46,4l0 0c6.64,-5.27 13.14,-10.71 19.51,-16.33zm-749.37 55.91c-3.65,-14.63 -7.1,-28.2 -10.39,-40.86l0 0c12.96,3.57 25.13,6.99 36.33,10.22l0 0c4.99,10.18 10.46,21.52 16.4,34.1l0 0c-13.61,-1.17 -27.74,-2.37 -42.34,-3.47zm754.89 -29.82c10.88,-3.15 23.04,-6.54 36.44,-10.22l0 0c-3.54,13.18 -7.17,26.97 -10.75,41.14l0 0c-15.09,1.03 -29.01,2.09 -42.06,3.12l0 0c5.76,-12.12 11.24,-23.5 16.37,-34.03zm-693.58 34.95c-4.98,-10.68 -9.68,-20.51 -14.07,-29.58l0 0c10.36,3.01 19.48,5.72 27.25,8.05l0 0c5.45,6.82 11.77,14.99 19.06,24.68l0 0c-10.18,-1.03 -20.96,-2.09 -32.24,-3.15zm642.57 -19.13c8.28,-2.8 18.09,-5.94 29.68,-9.47l0 0c-4.45,9.22 -9.15,19.05 -13.96,29.26l0 0c-11.77,1.02 -22.58,2.04 -32.69,3.08l0 0c6.39,-8.74 12.05,-16.37 16.96,-22.87zm-588.03 24.53c-2.83,-3.82 -5.62,-7.52 -8.21,-10.99l0 0c7.03,4.35 14.18,8.49 21.42,12.44l0 0c-4.24,-0.46 -8.66,-0.92 -13.21,-1.45zm556.89 -10.11c-2.54,3.47 -5.16,7.07 -7.88,10.78l0 0c-4.7,0.57 -9.26,1.06 -13.53,1.56l0 0c7.24,-3.93 14.39,-8.02 21.42,-12.34zm-829.96 8.28c23.61,0.42 47.47,1.23 71.04,2.4l0 0c1.31,26.15 2.19,49.97 2.73,71.67l0 0c-31.5,5.23 -62.2,11.13 -90.77,17.85l0 0c5.66,-25.49 11.31,-55.6 17,-91.93zm1021.41 74.82c0.42,-23.6 1.24,-47.43 2.36,-71l0 0c26.16,-1.31 49.94,-2.19 71.71,-2.73l0 0c5.23,31.5 11.14,62.2 17.81,90.77l0 0c-25.45,-5.66 -55.55,-11.31 -91.89,-17.04zm314.8 58.21c-17.7,-1.34 -47.15,-17.91 -86.84,-89.27l0 0c-6.92,-12.47 -13.75,-26.08 -20.5,-40.6l0 0c60.97,4.63 92.32,14.42 124.69,24.53l0 0c20.75,6.47 33.47,16.79 37.85,30.61l0 0c4.99,15.94 -1.9,34.92 -11.2,46.94l0 0c-7.63,9.86 -21.66,27.92 -41.46,27.92l0 0c-0.85,0 -1.69,-0.03 -2.54,-0.11zm-1248.66 -129.81c19.23,1.06 38.17,2.26 56.5,3.61l0 0c4.18,17 8.56,35.38 13.11,55.13l0 0c-22.26,2.87 -44.77,6.01 -67,9.51l0 0c-0.57,-20.85 -1.41,-43.51 -2.61,-68.25zm-327.35 134.13c-16.71,-0.71 -32.16,-13.72 -40.25,-26.54l0 0c-6.96,-11 -19.86,-31.5 -11.1,-50.86l0 0c7.32,-16.19 33.01,-38.2 113.63,-51.1l0 0c14.07,-2.19 29.16,-4 45.1,-5.37l0 0c-25.17,55.69 -45.1,81.85 -65.63,108.78l0 0c-12.83,16.82 -26.51,25.13 -40.5,25.13l0 0c-0.43,0 -0.81,0 -1.24,-0.03zm1177.21 -74.3c4.34,-18.72 8.83,-37.18 13.31,-55.02l0 0c17.53,-1.13 36.38,-2.3 56.58,-3.36l0 0c-1.05,22.44 -1.87,45.16 -2.29,67.67l0 0c-20.57,-3.08 -43.01,-6.18 -67.6,-9.3zm-776.1 -54.95c16.01,1.23 31.53,2.54 46.23,3.89l0 0c5.94,12.79 12.3,26.75 19.06,41.92l0 0c-17.28,1.8 -35.02,3.82 -53.02,6.01l0 0c-4.24,-18.41 -8.34,-35.74 -12.26,-51.82zm706.86 46.76c6.64,-14.63 13.14,-28.77 19.44,-42.13l0 0c14.07,-1.2 29.33,-2.36 45.9,-3.54l0 0c-4.2,16.86 -8.38,34.21 -12.47,51.85l0 0c-18.76,-2.29 -36.44,-4.35 -52.87,-6.18zm-641.69 -41.14c13.36,1.23 25.91,2.5 37.54,3.75l0 0c6.71,9.15 14.1,19.4 22.09,30.75l0 0c-13.62,1.16 -27.75,2.47 -42.31,3.92l0 0c-6.11,-13.75 -11.84,-26.5 -17.32,-38.41zm582.59 35.05c7.74,-10.95 15.13,-21.2 21.95,-30.64l0 0c11.31,-1.24 23.85,-2.51 37.68,-3.75l0 0c-5.77,12.36 -11.67,25.27 -17.71,38.59l0 0c-14.99,-1.59 -28.91,-2.97 -41.92,-4.21zm-522.93 -28.94c10.68,1.16 20.11,2.26 28.2,3.22l0 0c6.54,5.8 14.18,12.72 23.01,21l0 0c-10.18,0.74 -21,1.58 -32.23,2.54l0 0c-6.79,-9.73 -13.08,-18.56 -18.98,-26.76zm471.3 24.57c7.77,-7.46 14.71,-13.97 20.61,-19.59l0 0c8.66,-1.27 18.87,-2.64 30.89,-4.13l0 0c-5.94,8.31 -12.3,17.1 -18.8,26.36l0 0c-11.76,-1.02 -22.62,-1.9 -32.69,-2.64zm-407.4 -11.1c7.46,2.9 14.99,5.66 22.62,8.28l0 0c-4.17,0.28 -8.45,0.56 -12.9,0.84l0 0c-3.36,-3.18 -6.64,-6.25 -9.72,-9.12zm372.05 8.81c7.6,-2.58 15.13,-5.34 22.62,-8.24l0 0c-3.04,2.86 -6.18,5.86 -9.44,9.01l0 0c-4.56,-0.28 -9.01,-0.56 -13.18,-0.77zm-346.36 15.72c10.71,-0.67 20.22,-1.27 28.34,-1.72l0 0c7.42,4.59 16.19,10.07 26.34,16.68l0 0c-9.9,2.5 -20.4,5.23 -31.36,8.08l0 0c-8.34,-8.38 -16.08,-16.01 -23.32,-23.04zm288.61 15.06c9.01,-6.01 16.93,-11.24 23.78,-15.69l0 0c8.7,0.21 19.01,0.63 31.11,1.27l0 0c-7.32,7.1 -15.1,14.74 -23.12,22.69l0 0c-11.45,-3.05 -21.94,-5.8 -31.77,-8.28zm-348.41 -10.71c13.39,-1.09 25.98,-2.01 37.64,-2.83l0 0c8.17,7.84 17.18,16.65 27.04,26.44l0 0c-13.14,3.54 -26.86,7.28 -40.97,11.24l0 0c-8.38,-12.51 -16.29,-24.07 -23.71,-34.85zm398.49 24c9.58,-9.44 18.62,-18.27 27.04,-26.41l0 0c11.3,0.74 23.88,1.7 37.71,2.87l0 0c-7.81,11.17 -15.91,22.87 -24.17,34.95l0 0c-14.5,-4.17 -27.96,-7.95 -40.57,-11.41zm-273.34 -26.16c7.81,1.55 15.69,2.97 23.6,4.21l0 0c-4.03,0.95 -8.2,2.01 -12.5,3.11l0 0c-3.86,-2.57 -7.6,-5.02 -11.1,-7.31zm188.87 4.46c7.95,-1.24 15.84,-2.61 23.64,-4.14l0 0c-3.46,2.29 -7.06,4.7 -10.78,7.21l0 0c-4.45,-1.1 -8.8,-2.12 -12.86,-3.08zm-379.16 3.5c15.98,-1.55 31.46,-2.97 46.16,-4.24l0 0c8.08,11.62 16.75,24.24 26.05,37.99l0 0c-16.72,4.77 -33.82,9.86 -51.14,15.13l0 0c-7.38,-17.39 -14.42,-33.72 -21.07,-48.88zm520.78 34.42c9.12,-13.29 17.99,-26.02 26.51,-38.1l0 0c14.07,1.27 29.3,2.76 45.8,4.49l0 0c-7.07,15.87 -14.21,32.23 -21.28,48.88l0 0c-18.09,-5.51 -35.12,-10.6 -51.03,-15.27zm-594.28 -26.44c19.12,-2.29 37.95,-4.42 56.29,-6.29l0 0c7.07,16.08 14.53,33.36 22.48,52.03l0 0c-21.49,6.68 -43.08,13.72 -64.4,21.03l0 0c-4.13,-20.43 -8.91,-42.59 -14.38,-66.76zm357.91 -5.51c4.32,0.1 8.6,0.17 12.94,0.17l0 0c3.78,0 7.52,-0.07 11.3,-0.14l0 0c-3.85,1.66 -7.8,3.44 -11.94,5.27l0 0c-4.28,-1.83 -8.42,-3.64 -12.3,-5.3zm303.14 52.06c7.6,-17.7 15.2,-35.05 22.73,-51.89l0 0c17.42,1.91 36.15,4.11 56.26,6.54l0 0c-4.92,21.91 -9.65,44.14 -13.97,66.27l0 0c-19.76,-6.65 -41.35,-13.57 -65.03,-20.93zm-367.74 -42.8c10.46,-2.54 19.76,-4.77 27.67,-6.64l0 0c8.09,3.22 17.63,7.1 28.8,11.84l0 0c-9.37,4.2 -19.23,8.69 -29.51,13.42l0 0c-9.68,-6.75 -18.65,-12.93 -26.96,-18.62zm97.15 5.06c9.9,-4.32 18.66,-8.13 26.13,-11.31l0 0c8.55,1.69 18.62,3.89 30.43,6.64l0 0c-8.45,5.76 -17.42,11.87 -26.72,18.34l0 0c-10.71,-4.99 -20.61,-9.51 -29.83,-13.68zm-477.23 3.25c23.32,-3.71 46.97,-6.99 70.37,-10l0 0c5.79,25.55 10.81,48.84 15.16,70.15l0 0c-30.15,10.61 -59.34,21.77 -86.34,33.33l0 0c1.16,-26.05 1.51,-56.72 0.81,-93.48zm828.5 60.68c4.53,-23.14 9.48,-46.51 14.71,-69.52l0 0c25.98,3.26 49.58,6.54 71.07,9.76l0 0c-0.32,31.91 0.18,63.19 1.76,92.53l0 0c-24.06,-10.04 -52.77,-20.86 -87.54,-32.77zm-506.6 -54.32c13,-3.4 25.24,-6.5 36.58,-9.33l0 0c9.44,6.29 19.83,13.42 31.25,21.35l0 0c-12.34,5.76 -25.21,11.83 -38.38,18.16l0 0c-10.47,-10.85 -20.22,-20.89 -29.44,-30.19zm202.33 12.16c11.07,-7.63 21.53,-14.74 31.18,-21.32l0 0c11.06,2.77 23.25,5.87 36.69,9.41l0 0c-9.69,9.65 -19.66,19.76 -29.9,30.22l0 0c-13.53,-6.61 -26.12,-12.68 -37.96,-18.3zm-101.68 2.79c12.23,-5.62 23.71,-10.81 34.39,-15.55l0 0c10.39,4.56 21.87,9.76 34.45,15.59l0 0c-11.13,7.81 -22.72,16.01 -34.63,24.57l0 0c-12.19,-8.88 -23.57,-17.04 -34.21,-24.61zm-163.81 2.05c15.48,-4.31 30.5,-8.38 44.77,-12.19l0 0c9.97,10.04 20.68,20.99 32.24,32.9l0 0c-15.63,7.6 -31.64,15.55 -47.75,23.75l0 0c-10.32,-15.84 -20.08,-30.68 -29.26,-44.46zm318.97 21.1c11.27,-11.48 22.19,-22.51 32.69,-32.97l0 0c13.65,3.75 28.38,7.84 44.36,12.4l0 0c-9.73,14.42 -19.59,29.26 -29.48,44.46l0 0c-16.82,-8.56 -32.72,-16.54 -47.57,-23.89zm550.74 128.23c-17.21,-4.42 -43.36,-25.88 -70.05,-103.03l0 0c-4.63,-13.46 -9.05,-28.06 -13.14,-43.54l0 0c59.27,15.17 88.42,30.22 118.58,45.8l0 0c19.3,9.97 30.04,22.34 31.91,36.72l0 0c2.15,16.58 -7.95,34.07 -19.16,44.25l0 0c-8.34,7.56 -22.86,20.82 -40,20.82l0 0c-2.65,0 -5.38,-0.32 -8.13,-1.02zm-1385.01 -14.95c-8.74,-9.66 -25.03,-27.57 -19.76,-48.18l0 0c4.38,-17.21 25.84,-43.33 102.99,-70.05l0 0c13.46,-4.63 28.06,-8.98 43.54,-13.11l0 0c-15.17,59.24 -30.22,88.43 -45.8,118.55l0 0c-9.97,19.3 -22.34,30.08 -36.72,31.98l0 0c-1.52,0.18 -3.05,0.28 -4.53,0.28l0 0c-15.16,0 -30.47,-9.26 -39.72,-19.47zm444.33 -113.74c18.41,-5.58 36.62,-10.92 54.32,-15.97l0 0c9.76,14.63 20.15,30.36 31.18,47.36l0 0c-19.94,10.28 -40.01,20.96 -59.73,31.84l0 0c-7.63,-19.4 -16.19,-40.35 -25.77,-63.23zm452.21 31.85c10.5,-16.12 20.99,-31.92 31.35,-47.15l0 0c16.82,4.91 34.91,10.28 54.32,16.22l0 0c-8.7,20.71 -17.21,41.78 -25.31,62.77l0 0c-18.3,-9.93 -38.34,-20.5 -60.36,-31.84zm-276.7 -26.83c14.53,-6.96 28.55,-13.57 41.95,-19.76l0 0c11.56,8.12 24.03,17.03 37.5,26.79l0 0c-14.07,10.18 -28.45,20.78 -42.9,31.71l0 0c-12.9,-13.86 -25.1,-26.76 -36.55,-38.74zm107.44 7.1c13.04,-9.37 25.77,-18.3 37.89,-26.79l0 0c12.76,6.01 26.62,12.65 41.53,19.94l0 0c-12.05,12.47 -24.38,25.41 -36.76,38.63l0 0c-15.09,-11.38 -29.33,-21.99 -42.66,-31.78zm-366.32 14.81c22.33,-7.7 45.06,-15.05 67.57,-22.05l0 0c10.15,24.13 19.16,46.19 27.11,66.44l0 0c-27.82,15.7 -54.68,31.74 -79.21,47.82l0 0c-3.43,-25.87 -8.38,-56.12 -15.48,-92.21zm610.47 44.71c8.45,-22.05 17.39,-44.14 26.55,-65.91l0 0c25.02,7.73 47.71,15.02 68.32,21.94l0 0c-5.9,31.39 -10.82,62.27 -14.32,91.44l0 0c-21.98,-14.04 -48.35,-29.69 -80.55,-47.47zm-417.89 -33.96c17.17,-8.74 34.14,-17.11 50.71,-25.17l0 0c12.16,12.68 25.1,26.4 38.95,41.21l0 0c-17.88,13.62 -35.81,27.61 -53.3,41.75l0 0c-10.89,-17.78 -22.94,-36.97 -36.37,-57.79zm229.58 16.19c13.18,-14.11 26.23,-27.82 39.05,-41.04l0 0c15.77,7.77 32.63,16.22 50.72,25.41l0 0c-12.16,18.91 -24.21,38.17 -35.84,57.44l0 0c-16.3,-12.93 -34.21,-26.86 -53.94,-41.81zm-115.5 1.94c15.42,-11.56 30.69,-22.8 45.59,-33.58l0 0c14.14,10.36 29.3,21.6 45.52,33.79l0 0c-15.27,16.5 -30.5,33.36 -45.27,50.36l0 0c-13.82,-15.59 -29.01,-32.41 -45.84,-50.57zm-191.52 22.82c20.65,-11.45 41.75,-22.65 62.71,-33.43l0 0c14.21,22.02 26.89,42.2 38.24,60.72l0 0c-24.68,20.29 -48.32,40.74 -69.74,60.86l0 0c-7.8,-24.92 -17.95,-53.83 -31.21,-88.15zm373.9 27.4c12.15,-20.22 24.78,-40.47 37.57,-60.3l0 0c23.25,11.95 44.35,23.08 63.44,33.47l0 0c-11.2,29.86 -21.45,59.45 -29.97,87.54l0 0c-19.2,-17.6 -42.45,-37.6 -71.04,-60.71zm-251.5 3.57c18.38,-14.85 37.18,-29.54 55.95,-43.83l0 0c17.81,19.2 33.78,36.9 48.17,53.16l0 0c-20.78,24.24 -40.5,48.53 -58.07,72.03l0 0c-12.05,-23.11 -27.07,-49.87 -46.05,-81.36zm125.93 9.23c15.48,-17.81 31.42,-35.56 47.43,-52.88l0 0c20.89,15.83 39.72,30.43 56.68,44l0 0c-16.22,27.46 -31.45,54.78 -44.67,81.01l0 0c-15.87,-20.72 -35.3,-44.43 -59.44,-72.13zm522.96 115.18c-16.22,-7.32 -38.2,-32.98 -51.1,-113.6l0 0c-2.26,-14.1 -4,-29.19 -5.37,-45.16l0 0c55.73,25.24 81.85,45.13 108.78,65.66l0 0c17.28,13.22 25.73,27.25 25.06,41.75l0 0c-0.74,16.71 -13.75,32.16 -26.5,40.25l0 0c-8.42,5.27 -22.3,14.03 -37.01,14.03l0 0c-4.6,0 -9.26,-0.84 -13.86,-2.93zm-1111.7 -7.21c-10.25,-7.95 -29.4,-22.76 -27.81,-43.97l0 0c1.34,-17.74 17.91,-47.18 89.27,-86.83l0 0c12.47,-6.96 26.05,-13.79 40.6,-20.54l0 0c-4.63,60.96 -14.42,92.35 -24.53,124.73l0 0c-6.47,20.74 -16.79,33.46 -30.65,37.81l0 0c-3.68,1.17 -7.56,1.7 -11.45,1.7l0 0c-12.89,0 -26.26,-5.76 -35.45,-12.9zm957.82 87.05c-14.67,-10.04 -31.88,-39.09 -30.57,-120.77l0 0c0.24,-14.24 1.13,-29.43 2.54,-45.37l0 0c50.53,34.49 72.76,58.67 95.74,83.58l0 0c14.75,15.98 20.61,31.28 17.46,45.41l0 0c-3.64,16.33 -19.12,29.3 -33.11,35.02l0 0c-7.7,3.15 -19.62,8.02 -31.78,8.02l0 0c-6.92,0 -13.93,-1.55 -20.29,-5.9zm-804.54 0.77c-11.49,-6.04 -32.94,-17.31 -35.02,-38.48l0 0c-1.77,-17.67 9.44,-49.59 72.87,-101.05l0 0c11.03,-8.98 23.22,-18.06 36.37,-27.25l0 0c6.04,60.86 1.84,93.44 -2.47,127.09l0 0c-2.79,21.56 -10.71,35.87 -23.6,42.55l0 0c-5.87,3.08 -12.58,4.39 -19.34,4.39l0 0c-10.29,0 -20.71,-2.98 -28.8,-7.25zm639.21 51.14c-12.72,-12.4 -24.64,-44.07 -9.15,-124.23l0 0c2.68,-14 6.18,-28.8 10.35,-44.28l0 0c43.79,42.76 61.5,70.4 79.77,98.95l0 0c11.74,18.31 14.89,34.39 9.34,47.79l0 0c-6.43,15.41 -23.93,25.52 -38.7,28.73l0 0c-6.01,1.31 -14.5,3.15 -23.36,3.15l0 0c-9.86,0 -20.25,-2.29 -28.24,-10.11zm-472.99 8.74c-12.4,-4 -35.45,-11.35 -41.18,-31.85l0 0c-4.81,-17.1 0.67,-50.43 54.18,-112.15l0 0c9.34,-10.74 19.76,-21.87 31.11,-33.15l0 0c16.5,58.89 18.05,91.72 19.65,125.57l0 0c0.95,21.74 -4.35,37.22 -15.87,46.02l0 0c-7.95,6.07 -18.34,8.52 -28.48,8.52l0 0c-6.86,0 -13.61,-1.1 -19.41,-2.97zm301.08 13.68c-10.32,-14.46 -16.54,-47.65 12.62,-123.95l0 0c5.09,-13.32 11.09,-27.32 17.88,-41.78l0 0c35.66,49.69 48.35,80.02 61.38,111.29l0 0c8.35,20.04 8.63,36.44 0.85,48.67l0 0c-8.98,14.1 -27.99,20.96 -43.12,21.56l0 0c-2.43,0.1 -5.3,0.21 -8.41,0.21l0 0c-13.32,0 -31.14,-2.01 -41.22,-16.01zm-127.02 16.4c-12.89,-1.73 -36.86,-5.02 -46.08,-24.17l0 0c-7.7,-16.01 -8.05,-49.84 33.89,-119.89l0 0c7.31,-12.19 15.7,-24.95 24.89,-38.02l0 0c26.51,55.13 33.71,87.19 41.14,120.23l0 0c4.77,21.21 2.19,37.39 -7.63,48.1l0 0c-9.3,10.15 -24.5,14.32 -37.96,14.32l0 0c-2.83,0 -5.62,-0.21 -8.24,-0.56l0 0z"/>
 </g>
</svg>
